<svg width="148" height="178" viewBox="0 0 148 178" fill="none" xmlns="http://www.w3.org/2000/svg">
<path d="M24.0234 170.103H26.1719C26.1146 170.863 25.9036 171.537 25.5391 172.126C25.1745 172.709 24.6667 173.168 24.0156 173.501C23.3646 173.834 22.5755 174.001 21.6484 174.001C20.9349 174.001 20.2917 173.876 19.7188 173.626C19.151 173.371 18.6641 173.009 18.2578 172.54C17.8568 172.066 17.5495 171.498 17.3359 170.837C17.1224 170.17 17.0156 169.423 17.0156 168.595V167.728C17.0156 166.899 17.125 166.152 17.3438 165.485C17.5625 164.819 17.875 164.251 18.2812 163.782C18.6927 163.308 19.1849 162.944 19.7578 162.689C20.3359 162.433 20.9818 162.306 21.6953 162.306C22.6224 162.306 23.4062 162.478 24.0469 162.821C24.6875 163.16 25.1849 163.626 25.5391 164.22C25.8932 164.814 26.1068 165.496 26.1797 166.267H24.0312C23.9896 165.787 23.8854 165.381 23.7188 165.048C23.5573 164.715 23.3125 164.462 22.9844 164.29C22.6615 164.113 22.2318 164.024 21.6953 164.024C21.2786 164.024 20.9115 164.103 20.5938 164.259C20.2812 164.415 20.0208 164.649 19.8125 164.962C19.6042 165.269 19.4479 165.655 19.3438 166.118C19.2396 166.577 19.1875 167.108 19.1875 167.712V168.595C19.1875 169.173 19.2344 169.691 19.3281 170.149C19.4219 170.608 19.5677 170.996 19.7656 171.314C19.9635 171.631 20.2188 171.873 20.5312 172.04C20.8438 172.207 21.2161 172.29 21.6484 172.29C22.1745 172.29 22.6016 172.207 22.9297 172.04C23.263 171.873 23.5156 171.629 23.6875 171.306C23.8646 170.983 23.9766 170.582 24.0234 170.103ZM32.7109 171.837V165.392H34.7891V173.845H32.8359L32.7109 171.837ZM32.9766 170.087L33.6172 170.071C33.6172 170.639 33.5547 171.162 33.4297 171.642C33.3047 172.121 33.1094 172.537 32.8438 172.892C32.5833 173.241 32.2526 173.514 31.8516 173.712C31.4505 173.905 30.9766 174.001 30.4297 174.001C30.013 174.001 29.6328 173.944 29.2891 173.829C28.9453 173.709 28.6484 173.524 28.3984 173.274C28.1536 173.019 27.9635 172.694 27.8281 172.298C27.6927 171.897 27.625 171.415 27.625 170.853V165.392H29.6875V170.868C29.6875 171.149 29.7188 171.384 29.7812 171.571C29.849 171.759 29.9401 171.912 30.0547 172.032C30.1745 172.147 30.3125 172.23 30.4688 172.282C30.6302 172.329 30.8021 172.353 30.9844 172.353C31.4844 172.353 31.8776 172.254 32.1641 172.056C32.4557 171.853 32.6641 171.582 32.7891 171.243C32.9141 170.899 32.9766 170.514 32.9766 170.087ZM41.2656 171.532C41.2656 171.355 41.2188 171.196 41.125 171.056C41.0312 170.915 40.8542 170.787 40.5938 170.673C40.3385 170.553 39.9635 170.441 39.4688 170.337C39.0312 170.243 38.6276 170.126 38.2578 169.985C37.888 169.845 37.5703 169.676 37.3047 169.478C37.0391 169.274 36.8307 169.037 36.6797 168.767C36.5339 168.491 36.4609 168.173 36.4609 167.814C36.4609 167.465 36.5365 167.136 36.6875 166.829C36.8385 166.517 37.0573 166.243 37.3438 166.009C37.6302 165.769 37.9792 165.582 38.3906 165.446C38.8021 165.306 39.2656 165.235 39.7812 165.235C40.5 165.235 41.1172 165.353 41.6328 165.587C42.1536 165.821 42.5521 166.144 42.8281 166.556C43.1042 166.962 43.2422 167.42 43.2422 167.931H41.1797C41.1797 167.707 41.1276 167.504 41.0234 167.321C40.9245 167.139 40.7708 166.993 40.5625 166.884C40.3542 166.769 40.0911 166.712 39.7734 166.712C39.487 166.712 39.2448 166.759 39.0469 166.853C38.8542 166.946 38.7083 167.069 38.6094 167.22C38.5104 167.371 38.4609 167.537 38.4609 167.72C38.4609 167.855 38.487 167.978 38.5391 168.087C38.5964 168.191 38.6875 168.287 38.8125 168.376C38.9375 168.465 39.1068 168.545 39.3203 168.618C39.5391 168.691 39.8073 168.761 40.125 168.829C40.7552 168.954 41.3047 169.121 41.7734 169.329C42.2474 169.532 42.6172 169.803 42.8828 170.142C43.1484 170.48 43.2812 170.912 43.2812 171.439C43.2812 171.814 43.2005 172.157 43.0391 172.47C42.8776 172.777 42.6432 173.045 42.3359 173.274C42.0286 173.504 41.6615 173.683 41.2344 173.814C40.8073 173.939 40.3255 174.001 39.7891 174.001C39.013 174.001 38.3568 173.863 37.8203 173.587C37.2839 173.306 36.8776 172.952 36.6016 172.524C36.3255 172.092 36.1875 171.644 36.1875 171.181H38.1641C38.1797 171.509 38.2682 171.772 38.4297 171.97C38.5911 172.168 38.7943 172.311 39.0391 172.399C39.2891 172.483 39.5521 172.524 39.8281 172.524C40.1406 172.524 40.4036 172.483 40.6172 172.399C40.8307 172.311 40.9922 172.194 41.1016 172.048C41.2109 171.897 41.2656 171.725 41.2656 171.532ZM48.8516 165.392V166.876H44.0078V165.392H48.8516ZM45.3047 163.314H47.375V171.407C47.375 171.657 47.4089 171.85 47.4766 171.985C47.5443 172.121 47.6458 172.212 47.7812 172.259C47.9167 172.306 48.0781 172.329 48.2656 172.329C48.401 172.329 48.526 172.321 48.6406 172.306C48.7552 172.29 48.8516 172.274 48.9297 172.259L48.9375 173.806C48.7656 173.863 48.5703 173.91 48.3516 173.946C48.138 173.983 47.8958 174.001 47.625 174.001C47.1615 174.001 46.7552 173.923 46.4062 173.767C46.0573 173.605 45.7865 173.347 45.5938 172.993C45.401 172.634 45.3047 172.16 45.3047 171.571V163.314ZM49.6562 169.704V169.54C49.6562 168.92 49.7448 168.35 49.9219 167.829C50.099 167.303 50.3568 166.847 50.6953 166.462C51.0339 166.077 51.4479 165.777 51.9375 165.564C52.4271 165.345 52.9844 165.235 53.6094 165.235C54.2448 165.235 54.8073 165.345 55.2969 165.564C55.7917 165.777 56.2083 166.077 56.5469 166.462C56.8854 166.847 57.1432 167.303 57.3203 167.829C57.4974 168.35 57.5859 168.92 57.5859 169.54V169.704C57.5859 170.319 57.4974 170.889 57.3203 171.415C57.1432 171.936 56.8854 172.392 56.5469 172.782C56.2083 173.168 55.7943 173.467 55.3047 173.681C54.8151 173.894 54.2552 174.001 53.625 174.001C53 174.001 52.4401 173.894 51.9453 173.681C51.4505 173.467 51.0339 173.168 50.6953 172.782C50.3568 172.392 50.099 171.936 49.9219 171.415C49.7448 170.889 49.6562 170.319 49.6562 169.704ZM51.7188 169.54V169.704C51.7188 170.074 51.7552 170.42 51.8281 170.743C51.901 171.066 52.013 171.35 52.1641 171.595C52.3151 171.84 52.5104 172.032 52.75 172.173C52.9948 172.308 53.2865 172.376 53.625 172.376C53.9583 172.376 54.2448 172.308 54.4844 172.173C54.724 172.032 54.9193 171.84 55.0703 171.595C55.2266 171.35 55.3411 171.066 55.4141 170.743C55.487 170.42 55.5234 170.074 55.5234 169.704V169.54C55.5234 169.176 55.487 168.834 55.4141 168.517C55.3411 168.194 55.2266 167.91 55.0703 167.665C54.9193 167.415 54.7214 167.22 54.4766 167.079C54.237 166.933 53.9479 166.86 53.6094 166.86C53.276 166.86 52.9896 166.933 52.75 167.079C52.5104 167.22 52.3151 167.415 52.1641 167.665C52.013 167.91 51.901 168.194 51.8281 168.517C51.7552 168.834 51.7188 169.176 51.7188 169.54ZM61.1406 167.126V173.845H59.0781V165.392H61.0234L61.1406 167.126ZM60.8359 169.314H60.2031C60.2031 168.725 60.2734 168.183 60.4141 167.689C60.5599 167.194 60.7734 166.764 61.0547 166.399C61.3359 166.03 61.6823 165.743 62.0938 165.54C62.5104 165.337 62.9922 165.235 63.5391 165.235C63.9193 165.235 64.2682 165.293 64.5859 165.407C64.9036 165.517 65.1771 165.691 65.4062 165.931C65.6406 166.165 65.8203 166.472 65.9453 166.853C66.0703 167.228 66.1328 167.678 66.1328 168.204V173.845H64.0703V168.415C64.0703 168.019 64.013 167.709 63.8984 167.485C63.7891 167.261 63.6302 167.105 63.4219 167.017C63.2135 166.923 62.9635 166.876 62.6719 166.876C62.349 166.876 62.0703 166.941 61.8359 167.071C61.6068 167.196 61.4167 167.371 61.2656 167.595C61.1198 167.819 61.0104 168.077 60.9375 168.368C60.8698 168.66 60.8359 168.975 60.8359 169.314ZM65.9766 168.931L65.125 169.087C65.1302 168.556 65.2031 168.058 65.3438 167.595C65.4844 167.126 65.6901 166.717 65.9609 166.368C66.237 166.014 66.5781 165.738 66.9844 165.54C67.3958 165.337 67.8698 165.235 68.4062 165.235C68.8229 165.235 69.1979 165.295 69.5312 165.415C69.8698 165.53 70.1589 165.715 70.3984 165.97C70.638 166.22 70.8203 166.545 70.9453 166.946C71.0755 167.347 71.1406 167.837 71.1406 168.415V173.845H69.0625V168.407C69.0625 167.996 69.0052 167.681 68.8906 167.462C68.7812 167.243 68.6224 167.092 68.4141 167.009C68.2057 166.92 67.9609 166.876 67.6797 166.876C67.3932 166.876 67.1432 166.931 66.9297 167.04C66.7214 167.144 66.5443 167.29 66.3984 167.478C66.2578 167.665 66.151 167.884 66.0781 168.134C66.0104 168.379 65.9766 168.644 65.9766 168.931ZM76.7891 174.001C76.1484 174.001 75.5729 173.897 75.0625 173.689C74.5521 173.48 74.1172 173.191 73.7578 172.821C73.4036 172.446 73.1302 172.011 72.9375 171.517C72.75 171.017 72.6562 170.48 72.6562 169.907V169.595C72.6562 168.944 72.75 168.353 72.9375 167.821C73.125 167.285 73.3906 166.824 73.7344 166.439C74.0781 166.053 74.4896 165.756 74.9688 165.548C75.4479 165.34 75.9766 165.235 76.5547 165.235C77.1536 165.235 77.6823 165.337 78.1406 165.54C78.599 165.738 78.9818 166.019 79.2891 166.384C79.5964 166.748 79.8281 167.186 79.9844 167.696C80.1406 168.202 80.2188 168.761 80.2188 169.376V170.243H73.5938V168.821H78.1875V168.665C78.1771 168.337 78.1146 168.037 78 167.767C77.8854 167.491 77.7083 167.272 77.4688 167.11C77.2292 166.944 76.9193 166.86 76.5391 166.86C76.2318 166.86 75.9635 166.928 75.7344 167.064C75.5104 167.194 75.3229 167.381 75.1719 167.626C75.026 167.866 74.9167 168.152 74.8438 168.485C74.7708 168.819 74.7344 169.189 74.7344 169.595V169.907C74.7344 170.261 74.7812 170.59 74.875 170.892C74.974 171.194 75.1172 171.457 75.3047 171.681C75.4974 171.899 75.7266 172.071 75.9922 172.196C76.263 172.316 76.5703 172.376 76.9141 172.376C77.3464 172.376 77.737 172.293 78.0859 172.126C78.4401 171.954 78.7474 171.702 79.0078 171.368L80.0469 172.446C79.8698 172.707 79.6302 172.957 79.3281 173.196C79.0312 173.436 78.6719 173.631 78.25 173.782C77.8281 173.928 77.3411 174.001 76.7891 174.001ZM83.6641 167.118V173.845H81.6016V165.392H83.5547L83.6641 167.118ZM86.2344 165.337L86.2031 167.259C86.0885 167.238 85.9583 167.222 85.8125 167.212C85.6719 167.202 85.5391 167.196 85.4141 167.196C85.0964 167.196 84.8177 167.241 84.5781 167.329C84.3385 167.412 84.138 167.535 83.9766 167.696C83.8203 167.858 83.7005 168.056 83.6172 168.29C83.5339 168.519 83.487 168.78 83.4766 169.071L83.0312 169.017C83.0312 168.48 83.0859 167.983 83.1953 167.524C83.3047 167.066 83.4635 166.665 83.6719 166.321C83.8802 165.978 84.1406 165.712 84.4531 165.524C84.7708 165.332 85.1354 165.235 85.5469 165.235C85.6615 165.235 85.7839 165.246 85.9141 165.267C86.0495 165.282 86.1562 165.306 86.2344 165.337ZM97.4609 170.892C97.4609 170.673 97.4271 170.478 97.3594 170.306C97.2969 170.129 97.1797 169.97 97.0078 169.829C96.8411 169.683 96.6042 169.543 96.2969 169.407C95.9948 169.267 95.6042 169.121 95.125 168.97C94.5938 168.803 94.099 168.616 93.6406 168.407C93.1823 168.199 92.7786 167.957 92.4297 167.681C92.0859 167.405 91.8177 167.087 91.625 166.728C91.4323 166.363 91.3359 165.941 91.3359 165.462C91.3359 164.993 91.4349 164.566 91.6328 164.181C91.8359 163.795 92.1224 163.465 92.4922 163.189C92.862 162.907 93.2969 162.691 93.7969 162.54C94.3021 162.389 94.8594 162.314 95.4688 162.314C96.3125 162.314 97.0417 162.467 97.6562 162.774C98.276 163.082 98.7552 163.498 99.0938 164.024C99.4323 164.551 99.6016 165.142 99.6016 165.798H97.4609C97.4609 165.444 97.3854 165.131 97.2344 164.86C97.0885 164.59 96.8646 164.376 96.5625 164.22C96.2656 164.064 95.8906 163.985 95.4375 163.985C95 163.985 94.6354 164.051 94.3438 164.181C94.0573 164.311 93.8411 164.488 93.6953 164.712C93.5547 164.936 93.4844 165.186 93.4844 165.462C93.4844 165.67 93.5339 165.858 93.6328 166.024C93.7318 166.186 93.8802 166.34 94.0781 166.485C94.276 166.626 94.5208 166.759 94.8125 166.884C95.1094 167.004 95.4531 167.123 95.8438 167.243C96.4688 167.431 97.0156 167.639 97.4844 167.868C97.9583 168.097 98.3516 168.358 98.6641 168.649C98.9818 168.941 99.2188 169.269 99.375 169.634C99.5365 169.998 99.6172 170.412 99.6172 170.876C99.6172 171.366 99.5208 171.803 99.3281 172.189C99.1354 172.574 98.8594 172.902 98.5 173.173C98.1406 173.444 97.7083 173.649 97.2031 173.79C96.7031 173.931 96.1432 174.001 95.5234 174.001C94.9714 174.001 94.4245 173.928 93.8828 173.782C93.3464 173.631 92.8594 173.407 92.4219 173.11C91.9844 172.808 91.6354 172.428 91.375 171.97C91.1146 171.506 90.9844 170.965 90.9844 170.345H93.1406C93.1406 170.704 93.1979 171.011 93.3125 171.267C93.4323 171.517 93.599 171.722 93.8125 171.884C94.0312 172.04 94.2865 172.155 94.5781 172.228C94.8698 172.301 95.1849 172.337 95.5234 172.337C95.9609 172.337 96.3203 172.277 96.6016 172.157C96.888 172.032 97.1016 171.86 97.2422 171.642C97.388 171.423 97.4609 171.173 97.4609 170.892ZM106.148 171.837V165.392H108.227V173.845H106.273L106.148 171.837ZM106.414 170.087L107.055 170.071C107.055 170.639 106.992 171.162 106.867 171.642C106.742 172.121 106.547 172.537 106.281 172.892C106.021 173.241 105.69 173.514 105.289 173.712C104.888 173.905 104.414 174.001 103.867 174.001C103.451 174.001 103.07 173.944 102.727 173.829C102.383 173.709 102.086 173.524 101.836 173.274C101.591 173.019 101.401 172.694 101.266 172.298C101.13 171.897 101.062 171.415 101.062 170.853V165.392H103.125V170.868C103.125 171.149 103.156 171.384 103.219 171.571C103.286 171.759 103.378 171.912 103.492 172.032C103.612 172.147 103.75 172.23 103.906 172.282C104.068 172.329 104.24 172.353 104.422 172.353C104.922 172.353 105.315 172.254 105.602 172.056C105.893 171.853 106.102 171.582 106.227 171.243C106.352 170.899 106.414 170.514 106.414 170.087ZM112.117 167.017V177.095H110.047V165.392H111.961L112.117 167.017ZM117.547 169.532V169.696C117.547 170.311 117.474 170.881 117.328 171.407C117.188 171.928 116.979 172.384 116.703 172.774C116.427 173.16 116.083 173.462 115.672 173.681C115.266 173.894 114.797 174.001 114.266 174.001C113.745 174.001 113.292 173.902 112.906 173.704C112.521 173.501 112.195 173.215 111.93 172.845C111.664 172.475 111.451 172.045 111.289 171.556C111.133 171.061 111.016 170.522 110.938 169.939V169.415C111.016 168.795 111.133 168.233 111.289 167.728C111.451 167.217 111.664 166.777 111.93 166.407C112.195 166.032 112.518 165.743 112.898 165.54C113.284 165.337 113.734 165.235 114.25 165.235C114.786 165.235 115.258 165.337 115.664 165.54C116.076 165.743 116.422 166.035 116.703 166.415C116.984 166.795 117.195 167.248 117.336 167.774C117.477 168.301 117.547 168.886 117.547 169.532ZM115.477 169.696V169.532C115.477 169.157 115.443 168.811 115.375 168.493C115.307 168.17 115.203 167.889 115.062 167.649C114.922 167.405 114.74 167.215 114.516 167.079C114.292 166.944 114.021 166.876 113.703 166.876C113.385 166.876 113.112 166.928 112.883 167.032C112.654 167.136 112.466 167.285 112.32 167.478C112.174 167.67 112.06 167.899 111.977 168.165C111.898 168.426 111.846 168.715 111.82 169.032V170.329C111.867 170.715 111.958 171.061 112.094 171.368C112.229 171.676 112.427 171.92 112.688 172.103C112.953 172.285 113.297 172.376 113.719 172.376C114.036 172.376 114.307 172.306 114.531 172.165C114.755 172.024 114.938 171.832 115.078 171.587C115.219 171.337 115.32 171.051 115.383 170.728C115.445 170.405 115.477 170.061 115.477 169.696ZM121.117 167.017V177.095H119.047V165.392H120.961L121.117 167.017ZM126.547 169.532V169.696C126.547 170.311 126.474 170.881 126.328 171.407C126.188 171.928 125.979 172.384 125.703 172.774C125.427 173.16 125.083 173.462 124.672 173.681C124.266 173.894 123.797 174.001 123.266 174.001C122.745 174.001 122.292 173.902 121.906 173.704C121.521 173.501 121.195 173.215 120.93 172.845C120.664 172.475 120.451 172.045 120.289 171.556C120.133 171.061 120.016 170.522 119.938 169.939V169.415C120.016 168.795 120.133 168.233 120.289 167.728C120.451 167.217 120.664 166.777 120.93 166.407C121.195 166.032 121.518 165.743 121.898 165.54C122.284 165.337 122.734 165.235 123.25 165.235C123.786 165.235 124.258 165.337 124.664 165.54C125.076 165.743 125.422 166.035 125.703 166.415C125.984 166.795 126.195 167.248 126.336 167.774C126.477 168.301 126.547 168.886 126.547 169.532ZM124.477 169.696V169.532C124.477 169.157 124.443 168.811 124.375 168.493C124.307 168.17 124.203 167.889 124.062 167.649C123.922 167.405 123.74 167.215 123.516 167.079C123.292 166.944 123.021 166.876 122.703 166.876C122.385 166.876 122.112 166.928 121.883 167.032C121.654 167.136 121.466 167.285 121.32 167.478C121.174 167.67 121.06 167.899 120.977 168.165C120.898 168.426 120.846 168.715 120.82 169.032V170.329C120.867 170.715 120.958 171.061 121.094 171.368C121.229 171.676 121.427 171.92 121.688 172.103C121.953 172.285 122.297 172.376 122.719 172.376C123.036 172.376 123.307 172.306 123.531 172.165C123.755 172.024 123.938 171.832 124.078 171.587C124.219 171.337 124.32 171.051 124.383 170.728C124.445 170.405 124.477 170.061 124.477 169.696ZM127.688 169.704V169.54C127.688 168.92 127.776 168.35 127.953 167.829C128.13 167.303 128.388 166.847 128.727 166.462C129.065 166.077 129.479 165.777 129.969 165.564C130.458 165.345 131.016 165.235 131.641 165.235C132.276 165.235 132.839 165.345 133.328 165.564C133.823 165.777 134.24 166.077 134.578 166.462C134.917 166.847 135.174 167.303 135.352 167.829C135.529 168.35 135.617 168.92 135.617 169.54V169.704C135.617 170.319 135.529 170.889 135.352 171.415C135.174 171.936 134.917 172.392 134.578 172.782C134.24 173.168 133.826 173.467 133.336 173.681C132.846 173.894 132.286 174.001 131.656 174.001C131.031 174.001 130.471 173.894 129.977 173.681C129.482 173.467 129.065 173.168 128.727 172.782C128.388 172.392 128.13 171.936 127.953 171.415C127.776 170.889 127.688 170.319 127.688 169.704ZM129.75 169.54V169.704C129.75 170.074 129.786 170.42 129.859 170.743C129.932 171.066 130.044 171.35 130.195 171.595C130.346 171.84 130.542 172.032 130.781 172.173C131.026 172.308 131.318 172.376 131.656 172.376C131.99 172.376 132.276 172.308 132.516 172.173C132.755 172.032 132.951 171.84 133.102 171.595C133.258 171.35 133.372 171.066 133.445 170.743C133.518 170.42 133.555 170.074 133.555 169.704V169.54C133.555 169.176 133.518 168.834 133.445 168.517C133.372 168.194 133.258 167.91 133.102 167.665C132.951 167.415 132.753 167.22 132.508 167.079C132.268 166.933 131.979 166.86 131.641 166.86C131.307 166.86 131.021 166.933 130.781 167.079C130.542 167.22 130.346 167.415 130.195 167.665C130.044 167.91 129.932 168.194 129.859 168.517C129.786 168.834 129.75 169.176 129.75 169.54ZM139.18 167.118V173.845H137.117V165.392H139.07L139.18 167.118ZM141.75 165.337L141.719 167.259C141.604 167.238 141.474 167.222 141.328 167.212C141.188 167.202 141.055 167.196 140.93 167.196C140.612 167.196 140.333 167.241 140.094 167.329C139.854 167.412 139.654 167.535 139.492 167.696C139.336 167.858 139.216 168.056 139.133 168.29C139.049 168.519 139.003 168.78 138.992 169.071L138.547 169.017C138.547 168.48 138.602 167.983 138.711 167.524C138.82 167.066 138.979 166.665 139.188 166.321C139.396 165.978 139.656 165.712 139.969 165.524C140.286 165.332 140.651 165.235 141.062 165.235C141.177 165.235 141.299 165.246 141.43 165.267C141.565 165.282 141.672 165.306 141.75 165.337ZM147.273 165.392V166.876H142.43V165.392H147.273ZM143.727 163.314H145.797V171.407C145.797 171.657 145.831 171.85 145.898 171.985C145.966 172.121 146.068 172.212 146.203 172.259C146.339 172.306 146.5 172.329 146.688 172.329C146.823 172.329 146.948 172.321 147.062 172.306C147.177 172.29 147.273 172.274 147.352 172.259L147.359 173.806C147.188 173.863 146.992 173.91 146.773 173.946C146.56 173.983 146.318 174.001 146.047 174.001C145.583 174.001 145.177 173.923 144.828 173.767C144.479 173.605 144.208 173.347 144.016 172.993C143.823 172.634 143.727 172.16 143.727 171.571V163.314Z" fill="black"/>
<rect x="1.83243" y="39.2618" width="75.7916" height="75.1267" transform="rotate(-30 1.83243 39.2618)" stroke="#5C948A" stroke-width="2"/>
<rect x="-1.22474" y="0.707107" width="98.6049" height="98.6049" transform="matrix(-0.965926 -0.258819 -0.258819 0.965926 127.316 33.9827)" stroke="#5C948A" stroke-width="2"/>
<rect x="24.4664" y="27.8448" width="115" height="114" fill="#5C948A" stroke="#5C948A" stroke-width="2"/>
<g clip-path="url(#clip0_4_89)">
<path d="M99.9188 87.5743C97.4033 88.2483 94.8807 88.4929 92.4274 88.3523C91.6637 88.3196 90.922 88.6909 90.5042 89.3852L87.2633 94.9986C80.7919 93.6268 74.8777 90.2292 70.4539 85.3108L73.6894 79.6772C74.1073 78.9829 74.058 78.155 73.6479 77.51C72.2995 75.4556 71.2499 73.1487 70.5759 70.6332C70.2794 69.5264 69.1312 68.8635 68.0244 69.1601L60.9812 71.0473C59.8744 71.3439 59.2115 72.4921 59.508 73.5989C64.5712 92.4948 83.9885 103.705 102.884 98.6422C103.991 98.3457 104.654 97.1975 104.358 96.0907L102.47 89.0475C102.174 87.9407 101.026 87.2778 99.9188 87.5743ZM77.0799 66.7337L82.472 86.8571L86.8914 79.2025L98.9655 75.9672L95.191 61.8808L77.0799 66.7337Z" fill="white"/>
</g>
<defs>
<clipPath id="clip0_4_89">
<rect width="50" height="50" fill="white" transform="translate(51.3142 67.1671) rotate(-15)"/>
</clipPath>
</defs>
</svg>
