<svg xmlns="http://www.w3.org/2000/svg" xmlns:xlink="http://www.w3.org/1999/xlink" width="500" zoomAndPan="magnify" viewBox="0 0 375 374.999991" height="500" preserveAspectRatio="xMidYMid meet" version="1.0"><path fill="#ffffff" d="M 216.125 161.421875 C 215.628906 161.425781 215.140625 161.472656 214.65625 161.574219 C 214.175781 161.671875 213.703125 161.816406 213.25 162.003906 C 212.792969 162.195312 212.359375 162.425781 211.949219 162.703125 C 211.539062 162.976562 211.160156 163.289062 210.8125 163.636719 C 210.460938 163.984375 210.148438 164.363281 209.875 164.773438 C 209.601562 165.183594 209.367188 165.617188 209.175781 166.070312 C 208.988281 166.527344 208.84375 166.996094 208.746094 167.480469 C 208.648438 167.964844 208.597656 168.453125 208.59375 168.945312 L 208.59375 182.199219 C 208.59375 182.695312 208.640625 183.183594 208.738281 183.671875 C 208.835938 184.15625 208.980469 184.628906 209.167969 185.085938 C 209.359375 185.542969 209.589844 185.976562 209.867188 186.390625 C 210.140625 186.800781 210.453125 187.183594 210.804688 187.53125 C 211.15625 187.882812 211.539062 188.195312 211.949219 188.46875 C 212.363281 188.746094 212.796875 188.976562 213.253906 189.167969 C 213.710938 189.355469 214.183594 189.5 214.671875 189.597656 C 215.15625 189.691406 215.648438 189.742188 216.144531 189.742188 C 216.640625 189.742188 217.128906 189.691406 217.617188 189.597656 C 218.101562 189.5 218.574219 189.355469 219.035156 189.167969 C 219.492188 188.976562 219.925781 188.746094 220.339844 188.46875 C 220.75 188.195312 221.132812 187.882812 221.484375 187.53125 C 221.832031 187.183594 222.144531 186.800781 222.421875 186.390625 C 222.699219 185.976562 222.929688 185.542969 223.121094 185.085938 C 223.308594 184.628906 223.453125 184.15625 223.550781 183.671875 C 223.644531 183.183594 223.695312 182.695312 223.695312 182.199219 L 223.695312 168.945312 C 223.691406 168.449219 223.640625 167.960938 223.542969 167.476562 C 223.445312 166.988281 223.296875 166.519531 223.105469 166.0625 C 222.914062 165.605469 222.683594 165.171875 222.40625 164.761719 C 222.128906 164.351562 221.816406 163.972656 221.464844 163.621094 C 221.113281 163.273438 220.730469 162.960938 220.316406 162.6875 C 219.90625 162.414062 219.46875 162.183594 219.011719 161.992188 C 218.554688 161.804688 218.082031 161.664062 217.597656 161.566406 C 217.109375 161.46875 216.621094 161.421875 216.125 161.421875 Z M 216.125 161.421875 " fill-opacity="1" fill-rule="nonzero"/><path fill="#ffffff" d="M 166.335938 124.933594 L 166.335938 111.679688 C 166.335938 111.1875 166.289062 110.695312 166.191406 110.210938 C 166.09375 109.722656 165.949219 109.253906 165.761719 108.792969 C 165.570312 108.335938 165.339844 107.902344 165.0625 107.492188 C 164.789062 107.078125 164.476562 106.699219 164.125 106.347656 C 163.773438 105.996094 163.394531 105.683594 162.980469 105.410156 C 162.570312 105.132812 162.132812 104.902344 161.675781 104.710938 C 161.21875 104.523438 160.746094 104.378906 160.257812 104.285156 C 159.773438 104.1875 159.28125 104.136719 158.785156 104.136719 C 158.289062 104.136719 157.800781 104.1875 157.3125 104.285156 C 156.828125 104.378906 156.355469 104.523438 155.898438 104.710938 C 155.4375 104.902344 155.003906 105.132812 154.589844 105.410156 C 154.179688 105.683594 153.796875 105.996094 153.445312 106.347656 C 153.097656 106.699219 152.785156 107.078125 152.507812 107.492188 C 152.234375 107.902344 152 108.335938 151.808594 108.792969 C 151.621094 109.253906 151.476562 109.722656 151.378906 110.210938 C 151.285156 110.695312 151.234375 111.1875 151.234375 111.679688 L 151.234375 124.933594 C 151.234375 125.429688 151.285156 125.921875 151.378906 126.40625 C 151.476562 126.890625 151.621094 127.363281 151.808594 127.820312 C 152 128.277344 152.234375 128.714844 152.507812 129.125 C 152.785156 129.539062 153.097656 129.917969 153.445312 130.269531 C 153.796875 130.617188 154.179688 130.929688 154.589844 131.207031 C 155.003906 131.480469 155.4375 131.714844 155.898438 131.902344 C 156.355469 132.09375 156.828125 132.238281 157.3125 132.332031 C 157.800781 132.429688 158.289062 132.476562 158.785156 132.476562 C 159.28125 132.476562 159.773438 132.429688 160.257812 132.332031 C 160.746094 132.238281 161.21875 132.09375 161.675781 131.902344 C 162.132812 131.714844 162.570312 131.480469 162.980469 131.207031 C 163.394531 130.929688 163.773438 130.617188 164.125 130.269531 C 164.476562 129.917969 164.789062 129.539062 165.0625 129.125 C 165.339844 128.714844 165.570312 128.277344 165.761719 127.820312 C 165.949219 127.363281 166.09375 126.890625 166.191406 126.40625 C 166.289062 125.921875 166.335938 125.429688 166.335938 124.933594 Z M 166.335938 124.933594 " fill-opacity="1" fill-rule="nonzero"/><path fill="#ffffff" d="M 187.445312 59.25 C 186.007812 59.25 184.570312 59.285156 183.136719 59.355469 C 181.699219 59.429688 180.265625 59.535156 178.835938 59.675781 C 177.40625 59.816406 175.980469 59.992188 174.558594 60.203125 C 173.132812 60.414062 171.71875 60.65625 170.308594 60.9375 C 168.898438 61.21875 167.496094 61.53125 166.101562 61.882812 C 164.707031 62.230469 163.324219 62.613281 161.945312 63.03125 C 160.570312 63.449219 159.207031 63.898438 157.851562 64.382812 C 156.5 64.867188 155.160156 65.382812 153.832031 65.933594 C 152.503906 66.480469 151.1875 67.0625 149.890625 67.679688 C 148.589844 68.292969 147.304688 68.9375 146.039062 69.613281 C 144.769531 70.292969 143.519531 71 142.285156 71.738281 C 141.054688 72.476562 139.839844 73.246094 138.644531 74.042969 C 137.449219 74.839844 136.273438 75.667969 135.121094 76.523438 C 133.964844 77.378906 132.832031 78.261719 131.722656 79.171875 C 130.609375 80.082031 129.523438 81.023438 128.457031 81.988281 C 127.390625 82.949219 126.351562 83.941406 125.335938 84.957031 C 124.316406 85.972656 123.328125 87.011719 122.363281 88.078125 C 121.394531 89.140625 120.457031 90.226562 119.546875 91.339844 C 118.632812 92.449219 117.75 93.582031 116.894531 94.734375 C 116.039062 95.886719 115.210938 97.0625 114.410156 98.253906 C 113.613281 99.449219 112.84375 100.664062 112.105469 101.894531 C 111.367188 103.125 110.65625 104.375 109.980469 105.644531 C 109.300781 106.910156 108.65625 108.191406 108.042969 109.492188 C 107.425781 110.789062 106.84375 112.101562 106.296875 113.429688 C 105.746094 114.753906 105.226562 116.09375 104.746094 117.445312 C 104.261719 118.800781 103.808594 120.164062 103.390625 121.535156 C 102.976562 122.910156 102.59375 124.296875 102.242188 125.6875 C 101.894531 127.082031 101.578125 128.484375 101.296875 129.890625 C 101.019531 131.300781 100.773438 132.714844 100.5625 134.136719 C 100.351562 135.554688 100.175781 136.980469 100.035156 138.410156 C 99.894531 139.839844 99.789062 141.269531 99.71875 142.707031 C 99.648438 144.140625 99.613281 145.574219 99.613281 147.011719 C 99.613281 148.449219 99.648438 149.882812 99.71875 151.316406 C 99.789062 152.75 99.898438 154.183594 100.039062 155.613281 C 100.179688 157.042969 100.355469 158.46875 100.566406 159.886719 C 100.777344 161.308594 101.023438 162.722656 101.304688 164.132812 C 101.585938 165.539062 101.898438 166.941406 102.25 168.332031 C 102.597656 169.726562 102.980469 171.109375 103.398438 172.484375 C 103.816406 173.859375 104.269531 175.222656 104.753906 176.574219 C 105.238281 177.925781 105.753906 179.265625 106.304688 180.59375 C 106.855469 181.917969 107.4375 183.230469 108.054688 184.53125 C 108.667969 185.828125 109.316406 187.109375 109.992188 188.378906 C 110.671875 189.644531 111.378906 190.894531 112.117188 192.125 C 112.859375 193.355469 113.625 194.570312 114.425781 195.761719 C 115.226562 196.957031 116.050781 198.128906 116.910156 199.285156 C 117.765625 200.4375 118.648438 201.570312 119.5625 202.679688 C 120.472656 203.789062 121.414062 204.875 122.378906 205.941406 C 123.34375 207.003906 124.335938 208.042969 125.351562 209.058594 C 126.371094 210.074219 127.410156 211.0625 128.476562 212.027344 C 129.542969 212.992188 130.628906 213.929688 131.742188 214.839844 C 132.851562 215.75 133.984375 216.632812 135.140625 217.488281 C 136.296875 218.34375 137.472656 219.171875 138.667969 219.96875 C 139.863281 220.765625 141.074219 221.535156 142.308594 222.273438 C 143.542969 223.011719 144.792969 223.71875 146.0625 224.394531 C 147.328125 225.070312 148.613281 225.714844 149.914062 226.332031 C 151.210938 226.945312 152.527344 227.527344 153.855469 228.074219 C 155.183594 228.625 156.523438 229.140625 157.878906 229.625 C 159.230469 230.105469 160.597656 230.558594 161.972656 230.972656 C 163.347656 231.390625 164.734375 231.773438 166.128906 232.121094 C 167.523438 232.46875 168.925781 232.785156 170.335938 233.0625 C 171.746094 233.34375 173.160156 233.589844 174.582031 233.800781 C 176.003906 234.007812 177.429688 234.183594 178.863281 234.324219 C 180.292969 234.464844 181.726562 234.570312 183.160156 234.640625 C 184.597656 234.710938 186.035156 234.746094 187.472656 234.746094 C 188.910156 234.746094 190.347656 234.710938 191.78125 234.636719 C 193.21875 234.566406 194.652344 234.460938 196.082031 234.320312 C 197.511719 234.179688 198.9375 234.003906 200.359375 233.792969 C 201.78125 233.582031 203.199219 233.335938 204.609375 233.054688 C 206.019531 232.773438 207.417969 232.457031 208.8125 232.109375 C 210.207031 231.757812 211.59375 231.375 212.96875 230.957031 C 214.34375 230.542969 215.710938 230.089844 217.0625 229.605469 C 218.414062 229.121094 219.757812 228.605469 221.085938 228.054688 C 222.414062 227.503906 223.726562 226.921875 225.027344 226.308594 C 226.324219 225.695312 227.609375 225.046875 228.875 224.371094 C 230.144531 223.691406 231.394531 222.984375 232.625 222.246094 C 233.859375 221.507812 235.074219 220.738281 236.269531 219.941406 C 237.464844 219.140625 238.636719 218.316406 239.792969 217.457031 C 240.945312 216.601562 242.078125 215.71875 243.191406 214.808594 C 244.300781 213.894531 245.390625 212.957031 246.453125 211.992188 C 247.519531 211.027344 248.558594 210.039062 249.574219 209.023438 C 250.589844 208.007812 251.582031 206.964844 252.546875 205.902344 C 253.511719 204.835938 254.449219 203.75 255.363281 202.640625 C 256.273438 201.527344 257.15625 200.394531 258.011719 199.242188 C 258.867188 198.089844 259.695312 196.914062 260.496094 195.71875 C 261.292969 194.523438 262.0625 193.3125 262.800781 192.078125 C 263.539062 190.847656 264.246094 189.597656 264.921875 188.332031 C 265.601562 187.0625 266.246094 185.78125 266.859375 184.484375 C 267.472656 183.183594 268.054688 181.871094 268.605469 180.542969 C 269.15625 179.21875 269.671875 177.878906 270.15625 176.527344 C 270.640625 175.171875 271.089844 173.808594 271.507812 172.433594 C 271.921875 171.058594 272.304688 169.675781 272.65625 168.285156 C 273.003906 166.890625 273.316406 165.488281 273.597656 164.082031 C 273.878906 162.671875 274.121094 161.257812 274.332031 159.835938 C 274.542969 158.414062 274.71875 156.992188 274.859375 155.5625 C 275 154.132812 275.105469 152.699219 275.171875 151.265625 C 275.242188 149.832031 275.277344 148.394531 275.277344 146.960938 C 275.277344 145.523438 275.242188 144.089844 275.171875 142.65625 C 275.097656 141.222656 274.992188 139.789062 274.851562 138.363281 C 274.710938 136.933594 274.535156 135.507812 274.320312 134.089844 C 274.109375 132.667969 273.863281 131.253906 273.582031 129.847656 C 273.300781 128.4375 272.988281 127.039062 272.636719 125.644531 C 272.289062 124.253906 271.902344 122.871094 271.488281 121.496094 C 271.070312 120.121094 270.617188 118.761719 270.132812 117.410156 C 269.648438 116.058594 269.132812 114.71875 268.582031 113.390625 C 268.03125 112.066406 267.449219 110.753906 266.832031 109.457031 C 266.21875 108.160156 265.570312 106.878906 264.894531 105.609375 C 264.214844 104.34375 263.507812 103.097656 262.769531 101.867188 C 262.03125 100.632812 261.261719 99.421875 260.460938 98.230469 C 259.664062 97.035156 258.835938 95.863281 257.980469 94.710938 C 257.121094 93.554688 256.238281 92.425781 255.328125 91.316406 C 254.414062 90.207031 253.476562 89.121094 252.511719 88.054688 C 251.546875 86.992188 250.554688 85.953125 249.539062 84.9375 C 248.523438 83.921875 247.480469 82.933594 246.417969 81.96875 C 245.351562 81.007812 244.261719 80.070312 243.152344 79.160156 C 242.042969 78.246094 240.910156 77.363281 239.753906 76.511719 C 238.601562 75.65625 237.425781 74.828125 236.230469 74.03125 C 235.035156 73.234375 233.820312 72.464844 232.589844 71.730469 C 231.355469 70.992188 230.105469 70.285156 228.839844 69.605469 C 227.570312 68.929688 226.289062 68.285156 224.988281 67.671875 C 223.691406 67.058594 222.375 66.476562 221.046875 65.925781 C 219.722656 65.378906 218.378906 64.863281 217.027344 64.378906 C 215.675781 63.894531 214.308594 63.445312 212.933594 63.027344 C 211.558594 62.609375 210.175781 62.226562 208.78125 61.878906 C 207.386719 61.53125 205.984375 61.214844 204.574219 60.9375 C 203.167969 60.65625 201.75 60.410156 200.328125 60.199219 C 198.90625 59.988281 197.480469 59.816406 196.050781 59.675781 C 194.621094 59.53125 193.1875 59.425781 191.753906 59.355469 C 190.320312 59.285156 188.882812 59.25 187.445312 59.25 Z M 139.53125 124.933594 L 139.53125 111.679688 C 139.53125 111.050781 139.5625 110.421875 139.625 109.796875 C 139.6875 109.171875 139.78125 108.546875 139.902344 107.929688 C 140.027344 107.3125 140.179688 106.703125 140.363281 106.101562 C 140.546875 105.5 140.757812 104.90625 141 104.324219 C 141.242188 103.742188 141.511719 103.175781 141.808594 102.621094 C 142.105469 102.066406 142.429688 101.527344 142.78125 101.003906 C 143.132812 100.480469 143.507812 99.972656 143.90625 99.488281 C 144.308594 99 144.730469 98.535156 145.175781 98.089844 C 145.621094 97.644531 146.089844 97.222656 146.578125 96.824219 C 147.0625 96.425781 147.570312 96.050781 148.09375 95.699219 C 148.617188 95.351562 149.15625 95.027344 149.714844 94.730469 C 150.269531 94.433594 150.839844 94.167969 151.421875 93.925781 C 152.003906 93.683594 152.597656 93.472656 153.199219 93.289062 C 153.804688 93.109375 154.414062 92.953125 155.03125 92.832031 C 155.648438 92.710938 156.273438 92.617188 156.898438 92.554688 C 157.527344 92.492188 158.15625 92.464844 158.785156 92.464844 C 159.417969 92.464844 160.046875 92.492188 160.671875 92.554688 C 161.300781 92.617188 161.921875 92.710938 162.539062 92.832031 C 163.160156 92.953125 163.769531 93.109375 164.371094 93.289062 C 164.976562 93.472656 165.566406 93.683594 166.152344 93.925781 C 166.734375 94.167969 167.300781 94.433594 167.859375 94.730469 C 168.414062 95.027344 168.953125 95.351562 169.476562 95.699219 C 170.003906 96.050781 170.507812 96.425781 170.996094 96.824219 C 171.484375 97.222656 171.949219 97.644531 172.394531 98.089844 C 172.839844 98.535156 173.265625 99 173.664062 99.488281 C 174.0625 99.972656 174.441406 100.480469 174.789062 101.003906 C 175.140625 101.527344 175.464844 102.066406 175.761719 102.621094 C 176.058594 103.175781 176.328125 103.742188 176.570312 104.324219 C 176.8125 104.90625 177.023438 105.5 177.207031 106.101562 C 177.390625 106.703125 177.546875 107.3125 177.667969 107.929688 C 177.792969 108.546875 177.886719 109.171875 177.949219 109.796875 C 178.011719 110.421875 178.042969 111.050781 178.042969 111.679688 L 178.042969 124.933594 C 178.042969 125.566406 178.011719 126.195312 177.949219 126.820312 C 177.890625 127.449219 177.796875 128.074219 177.675781 128.691406 C 177.550781 129.308594 177.398438 129.921875 177.21875 130.523438 C 177.035156 131.128906 176.824219 131.71875 176.582031 132.300781 C 176.339844 132.886719 176.070312 133.453125 175.773438 134.011719 C 175.476562 134.566406 175.152344 135.105469 174.804688 135.632812 C 174.453125 136.15625 174.078125 136.660156 173.675781 137.148438 C 173.277344 137.636719 172.855469 138.105469 172.410156 138.550781 C 171.960938 138.996094 171.496094 139.417969 171.007812 139.820312 C 170.519531 140.21875 170.015625 140.59375 169.488281 140.945312 C 168.964844 141.296875 168.425781 141.621094 167.867188 141.917969 C 167.3125 142.214844 166.742188 142.484375 166.160156 142.726562 C 165.578125 142.964844 164.984375 143.179688 164.378906 143.363281 C 163.773438 143.542969 163.164062 143.699219 162.542969 143.820312 C 161.925781 143.945312 161.300781 144.035156 160.675781 144.097656 C 160.046875 144.160156 159.417969 144.191406 158.785156 144.191406 C 158.15625 144.191406 157.523438 144.160156 156.898438 144.097656 C 156.269531 144.035156 155.644531 143.945312 155.027344 143.820312 C 154.40625 143.699219 153.796875 143.542969 153.191406 143.363281 C 152.589844 143.179688 151.996094 142.964844 151.414062 142.726562 C 150.828125 142.484375 150.261719 142.214844 149.703125 141.917969 C 149.148438 141.621094 148.605469 141.296875 148.082031 140.945312 C 147.558594 140.59375 147.050781 140.21875 146.5625 139.820312 C 146.074219 139.417969 145.609375 138.996094 145.164062 138.550781 C 144.71875 138.105469 144.292969 137.636719 143.894531 137.148438 C 143.492188 136.664062 143.117188 136.15625 142.769531 135.632812 C 142.417969 135.105469 142.09375 134.566406 141.796875 134.011719 C 141.5 133.453125 141.230469 132.886719 140.992188 132.300781 C 140.75 131.71875 140.539062 131.128906 140.355469 130.523438 C 140.171875 129.921875 140.019531 129.308594 139.898438 128.691406 C 139.773438 128.074219 139.683594 127.449219 139.621094 126.820312 C 139.558594 126.195312 139.53125 125.566406 139.53125 124.933594 Z M 155.761719 190.113281 C 155.492188 190.398438 155.199219 190.65625 154.878906 190.886719 C 154.558594 191.113281 154.222656 191.308594 153.863281 191.464844 C 153.503906 191.625 153.132812 191.75 152.746094 191.832031 C 152.363281 191.917969 151.976562 191.964844 151.582031 191.972656 C 151.191406 191.980469 150.800781 191.945312 150.414062 191.875 C 150.027344 191.804688 149.652344 191.695312 149.289062 191.546875 C 148.921875 191.398438 148.578125 191.21875 148.25 191 C 147.921875 190.785156 147.617188 190.539062 147.339844 190.261719 C 147.0625 189.984375 146.816406 189.679688 146.597656 189.351562 C 146.382812 189.023438 146.199219 188.679688 146.054688 188.316406 C 145.90625 187.953125 145.796875 187.578125 145.726562 187.191406 C 145.652344 186.804688 145.621094 186.414062 145.628906 186.023438 C 145.632812 185.628906 145.679688 185.242188 145.765625 184.859375 C 145.851562 184.476562 145.972656 184.105469 146.132812 183.746094 C 146.292969 183.386719 146.488281 183.046875 146.714844 182.730469 C 146.945312 182.410156 147.203125 182.117188 147.488281 181.847656 L 220.261719 109.109375 C 220.535156 108.851562 220.832031 108.625 221.152344 108.425781 C 221.46875 108.226562 221.804688 108.0625 222.15625 107.925781 C 222.503906 107.792969 222.867188 107.691406 223.234375 107.628906 C 223.605469 107.5625 223.976562 107.535156 224.355469 107.539062 C 224.730469 107.546875 225.101562 107.589844 225.46875 107.667969 C 225.835938 107.746094 226.191406 107.859375 226.539062 108.003906 C 226.882812 108.152344 227.210938 108.328125 227.523438 108.539062 C 227.835938 108.75 228.125 108.988281 228.390625 109.25 C 228.65625 109.515625 228.894531 109.804688 229.101562 110.117188 C 229.3125 110.425781 229.492188 110.757812 229.636719 111.101562 C 229.785156 111.445312 229.898438 111.804688 229.976562 112.171875 C 230.054688 112.535156 230.097656 112.90625 230.101562 113.285156 C 230.109375 113.660156 230.078125 114.03125 230.015625 114.402344 C 229.949219 114.769531 229.851562 115.128906 229.714844 115.480469 C 229.582031 115.832031 229.414062 116.164062 229.214844 116.484375 C 229.015625 116.800781 228.789062 117.097656 228.53125 117.371094 Z M 235.359375 182.316406 C 235.363281 182.945312 235.332031 183.574219 235.269531 184.203125 C 235.207031 184.828125 235.117188 185.453125 234.996094 186.070312 C 234.871094 186.691406 234.71875 187.300781 234.535156 187.902344 C 234.355469 188.507812 234.140625 189.101562 233.902344 189.683594 C 233.660156 190.265625 233.390625 190.835938 233.09375 191.390625 C 232.796875 191.949219 232.472656 192.488281 232.121094 193.011719 C 231.773438 193.535156 231.398438 194.042969 230.996094 194.53125 C 230.597656 195.019531 230.171875 195.484375 229.726562 195.929688 C 229.28125 196.375 228.816406 196.800781 228.328125 197.199219 C 227.839844 197.601562 227.332031 197.976562 226.808594 198.324219 C 226.285156 198.675781 225.742188 199 225.1875 199.296875 C 224.632812 199.59375 224.0625 199.863281 223.476562 200.105469 C 222.894531 200.347656 222.300781 200.558594 221.699219 200.742188 C 221.09375 200.925781 220.484375 201.078125 219.863281 201.203125 C 219.246094 201.324219 218.621094 201.417969 217.992188 201.480469 C 217.367188 201.539062 216.734375 201.570312 216.105469 201.570312 C 215.472656 201.570312 214.84375 201.539062 214.214844 201.480469 C 213.589844 201.417969 212.964844 201.324219 212.347656 201.203125 C 211.726562 201.078125 211.117188 200.925781 210.511719 200.742188 C 209.90625 200.558594 209.316406 200.347656 208.730469 200.105469 C 208.148438 199.863281 207.578125 199.59375 207.023438 199.296875 C 206.464844 199 205.925781 198.675781 205.402344 198.324219 C 204.875 197.976562 204.371094 197.601562 203.882812 197.199219 C 203.394531 196.800781 202.929688 196.375 202.480469 195.929688 C 202.035156 195.484375 201.613281 195.019531 201.214844 194.53125 C 200.8125 194.042969 200.4375 193.535156 200.085938 193.011719 C 199.738281 192.488281 199.414062 191.949219 199.117188 191.390625 C 198.820312 190.835938 198.550781 190.265625 198.308594 189.683594 C 198.070312 189.101562 197.855469 188.507812 197.675781 187.902344 C 197.492188 187.300781 197.339844 186.691406 197.214844 186.070312 C 197.09375 185.453125 197 184.828125 196.941406 184.203125 C 196.878906 183.574219 196.847656 182.945312 196.847656 182.316406 L 196.847656 169.0625 C 196.851562 168.433594 196.882812 167.804688 196.945312 167.175781 C 197.007812 166.550781 197.097656 165.929688 197.222656 165.3125 C 197.347656 164.695312 197.5 164.085938 197.683594 163.480469 C 197.867188 162.878906 198.078125 162.289062 198.320312 161.707031 C 198.5625 161.125 198.832031 160.554688 199.128906 160 C 199.425781 159.445312 199.75 158.90625 200.101562 158.382812 C 200.453125 157.859375 200.828125 157.355469 201.226562 156.867188 C 201.625 156.382812 202.050781 155.917969 202.496094 155.472656 C 202.941406 155.027344 203.410156 154.605469 203.894531 154.203125 C 204.382812 153.804688 204.890625 153.429688 205.414062 153.082031 C 205.9375 152.730469 206.476562 152.410156 207.03125 152.113281 C 207.589844 151.816406 208.15625 151.546875 208.742188 151.304688 C 209.324219 151.066406 209.914062 150.851562 210.519531 150.671875 C 211.121094 150.488281 211.734375 150.335938 212.351562 150.210938 C 212.96875 150.089844 213.589844 149.996094 214.21875 149.9375 C 214.847656 149.875 215.476562 149.84375 216.105469 149.84375 C 216.734375 149.84375 217.363281 149.875 217.992188 149.9375 C 218.617188 149.996094 219.242188 150.089844 219.859375 150.210938 C 220.476562 150.335938 221.089844 150.488281 221.691406 150.671875 C 222.292969 150.851562 222.886719 151.066406 223.46875 151.304688 C 224.050781 151.546875 224.621094 151.816406 225.175781 152.113281 C 225.734375 152.410156 226.273438 152.730469 226.796875 153.082031 C 227.320312 153.429688 227.828125 153.804688 228.316406 154.203125 C 228.800781 154.605469 229.269531 155.027344 229.714844 155.472656 C 230.160156 155.917969 230.582031 156.382812 230.984375 156.867188 C 231.382812 157.355469 231.757812 157.859375 232.109375 158.382812 C 232.460938 158.90625 232.785156 159.445312 233.082031 160 C 233.378906 160.554688 233.648438 161.125 233.890625 161.707031 C 234.132812 162.289062 234.34375 162.878906 234.527344 163.480469 C 234.710938 164.085938 234.863281 164.695312 234.988281 165.3125 C 235.113281 165.929688 235.203125 166.550781 235.265625 167.175781 C 235.328125 167.804688 235.359375 168.433594 235.359375 169.0625 Z M 235.359375 182.316406 " fill-opacity="1" fill-rule="nonzero"/><path fill="#ffffff" d="M 247.574219 281.132812 L 227.246094 281.132812 C 225.378906 281.136719 223.632812 281.605469 222.015625 282.535156 L 204.417969 292.710938 C 203.136719 293.453125 201.808594 294.105469 200.441406 294.671875 C 199.074219 295.238281 197.671875 295.714844 196.242188 296.097656 C 194.8125 296.484375 193.359375 296.769531 191.890625 296.964844 C 190.421875 297.15625 188.945312 297.253906 187.464844 297.253906 C 185.984375 297.253906 184.507812 297.15625 183.039062 296.964844 C 181.570312 296.769531 180.121094 296.484375 178.6875 296.097656 C 177.257812 295.714844 175.855469 295.238281 174.488281 294.671875 C 173.121094 294.105469 171.792969 293.453125 170.511719 292.710938 L 152.914062 282.535156 C 151.296875 281.605469 149.554688 281.136719 147.683594 281.132812 L 127.316406 281.132812 C 122.679688 281.125 118.230469 280.203125 113.972656 278.367188 L 113.972656 374.804688 L 187.445312 340.191406 L 259.632812 374.804688 L 259.632812 278.871094 C 255.75 280.367188 251.734375 281.121094 247.574219 281.132812 Z M 247.574219 281.132812 " fill-opacity="1" fill-rule="nonzero"/><path fill="#ffffff" d="M 326.898438 132.1875 L 316.753906 114.605469 C 314.777344 111.179688 313.789062 107.488281 313.789062 103.535156 L 313.789062 83.1875 C 313.789062 81.242188 313.535156 79.332031 313.03125 77.457031 C 312.527344 75.578125 311.789062 73.800781 310.816406 72.117188 C 309.84375 70.433594 308.671875 68.90625 307.296875 67.53125 C 305.921875 66.15625 304.390625 64.980469 302.707031 64.007812 L 284.992188 53.871094 C 281.5625 51.894531 278.859375 49.191406 276.878906 45.765625 L 266.773438 28.066406 C 265.796875 26.382812 264.621094 24.855469 263.246094 23.484375 C 261.871094 22.109375 260.339844 20.9375 258.65625 19.964844 C 256.96875 18.996094 255.1875 18.257812 253.308594 17.753906 C 251.429688 17.25 249.519531 16.996094 247.574219 16.996094 L 227.246094 16.996094 C 223.285156 16.996094 219.59375 16.007812 216.164062 14.035156 L 198.566406 3.898438 C 196.878906 2.925781 195.09375 2.1875 193.210938 1.683594 C 191.328125 1.179688 189.414062 0.925781 187.464844 0.925781 C 185.515625 0.925781 183.601562 1.179688 181.71875 1.683594 C 179.835938 2.1875 178.050781 2.925781 176.363281 3.898438 L 158.765625 14.035156 C 155.335938 16.007812 151.644531 16.996094 147.683594 16.996094 L 127.316406 16.996094 C 125.371094 16.996094 123.460938 17.25 121.582031 17.753906 C 119.703125 18.257812 117.921875 18.996094 116.238281 19.964844 C 114.550781 20.9375 113.019531 22.109375 111.644531 23.484375 C 110.269531 24.855469 109.09375 26.382812 108.121094 28.066406 L 97.972656 45.648438 C 96.019531 49.113281 93.328125 51.855469 89.898438 53.871094 L 72.300781 64.007812 C 70.617188 64.980469 69.085938 66.15625 67.710938 67.53125 C 66.339844 68.90625 65.164062 70.433594 64.191406 72.117188 C 63.21875 73.800781 62.480469 75.578125 61.976562 77.457031 C 61.472656 79.332031 61.21875 81.242188 61.21875 83.1875 L 61.21875 103.496094 C 61.21875 107.449219 60.230469 111.140625 58.253906 114.566406 L 48.109375 132.148438 C 47.132812 133.832031 46.394531 135.617188 45.890625 137.496094 C 45.386719 139.375 45.132812 141.289062 45.132812 143.238281 C 45.132812 145.183594 45.386719 147.097656 45.890625 148.976562 C 46.394531 150.859375 47.132812 152.640625 48.109375 154.328125 L 58.253906 171.90625 C 60.230469 175.332031 61.21875 179.023438 61.21875 182.976562 L 61.21875 203.480469 C 61.21875 205.425781 61.472656 207.335938 61.976562 209.210938 C 62.480469 211.089844 63.21875 212.871094 64.191406 214.550781 C 65.164062 216.234375 66.339844 217.765625 67.710938 219.140625 C 69.085938 220.515625 70.617188 221.6875 72.300781 222.660156 L 89.898438 232.679688 C 93.328125 234.660156 96.03125 237.363281 98.011719 240.789062 L 108.160156 258.367188 C 109.132812 260.050781 110.308594 261.578125 111.683594 262.949219 C 113.058594 264.324219 114.589844 265.496094 116.273438 266.46875 C 117.960938 267.441406 119.742188 268.175781 121.621094 268.679688 C 123.5 269.183594 125.410156 269.4375 127.355469 269.4375 L 147.644531 269.4375 C 151.605469 269.4375 155.296875 270.425781 158.726562 272.402344 L 176.324219 282.535156 C 178.011719 283.507812 179.796875 284.25 181.679688 284.753906 C 183.5625 285.257812 185.476562 285.507812 187.425781 285.507812 C 189.375 285.507812 191.289062 285.257812 193.171875 284.753906 C 195.054688 284.25 196.839844 283.507812 198.527344 282.535156 L 216.125 272.402344 C 219.554688 270.425781 223.246094 269.4375 227.207031 269.4375 L 247.535156 269.4375 C 249.480469 269.4375 251.390625 269.183594 253.269531 268.679688 C 255.148438 268.175781 256.929688 267.441406 258.617188 266.46875 C 260.300781 265.496094 261.832031 264.324219 263.207031 262.949219 C 264.582031 261.578125 265.757812 260.050781 266.734375 258.367188 L 276.878906 240.789062 C 278.859375 237.363281 281.5625 234.660156 284.992188 232.679688 L 302.589844 222.542969 C 304.273438 221.582031 305.804688 220.417969 307.179688 219.054688 C 308.558594 217.6875 309.734375 216.171875 310.714844 214.5 C 311.691406 212.828125 312.441406 211.058594 312.953125 209.191406 C 313.46875 207.320312 313.734375 205.417969 313.75 203.480469 L 313.75 183.015625 C 313.75 179.0625 314.738281 175.371094 316.714844 171.945312 L 326.859375 154.367188 C 327.839844 152.683594 328.582031 150.898438 329.089844 149.019531 C 329.597656 147.140625 329.851562 145.226562 329.855469 143.28125 C 329.859375 141.335938 329.609375 139.421875 329.109375 137.539062 C 328.609375 135.65625 327.871094 133.875 326.898438 132.1875 Z M 187.445312 246.363281 C 185.816406 246.363281 184.1875 246.320312 182.5625 246.242188 C 180.933594 246.160156 179.308594 246.042969 177.6875 245.882812 C 176.066406 245.722656 174.449219 245.523438 172.839844 245.285156 C 171.226562 245.046875 169.621094 244.769531 168.023438 244.449219 C 166.425781 244.132812 164.839844 243.777344 163.257812 243.382812 C 161.675781 242.984375 160.109375 242.550781 158.550781 242.078125 C 156.988281 241.605469 155.445312 241.097656 153.910156 240.546875 C 152.375 240 150.855469 239.414062 149.351562 238.789062 C 147.847656 238.167969 146.355469 237.507812 144.882812 236.8125 C 143.410156 236.117188 141.957031 235.386719 140.519531 234.617188 C 139.082031 233.851562 137.667969 233.046875 136.269531 232.210938 C 134.871094 231.375 133.496094 230.503906 132.140625 229.601562 C 130.785156 228.695312 129.453125 227.757812 128.148438 226.789062 C 126.839844 225.820312 125.554688 224.820312 124.292969 223.785156 C 123.035156 222.753906 121.800781 221.691406 120.59375 220.597656 C 119.386719 219.503906 118.207031 218.382812 117.058594 217.230469 C 115.90625 216.082031 114.78125 214.902344 113.6875 213.695312 C 112.59375 212.488281 111.53125 211.257812 110.496094 210 C 109.464844 208.742188 108.460938 207.457031 107.492188 206.152344 C 106.519531 204.84375 105.582031 203.515625 104.679688 202.160156 C 103.773438 200.808594 102.902344 199.433594 102.066406 198.035156 C 101.226562 196.640625 100.425781 195.222656 99.65625 193.789062 C 98.890625 192.351562 98.15625 190.898438 97.460938 189.429688 C 96.765625 187.957031 96.105469 186.46875 95.480469 184.964844 C 94.855469 183.460938 94.269531 181.945312 93.722656 180.410156 C 93.175781 178.878906 92.664062 177.335938 92.191406 175.777344 C 91.71875 174.21875 91.285156 172.652344 90.886719 171.070312 C 90.492188 169.492188 90.136719 167.90625 89.816406 166.308594 C 89.5 164.714844 89.222656 163.109375 88.984375 161.5 C 88.746094 159.890625 88.546875 158.273438 88.386719 156.65625 C 88.226562 155.035156 88.105469 153.414062 88.027344 151.789062 C 87.945312 150.160156 87.90625 148.535156 87.90625 146.90625 C 87.90625 145.28125 87.949219 143.652344 88.027344 142.027344 C 88.109375 140.402344 88.226562 138.78125 88.386719 137.160156 C 88.546875 135.539062 88.746094 133.925781 88.988281 132.316406 C 89.226562 130.707031 89.503906 129.101562 89.824219 127.507812 C 90.140625 125.910156 90.5 124.324219 90.894531 122.742188 C 91.289062 121.164062 91.726562 119.597656 92.199219 118.039062 C 92.671875 116.480469 93.183594 114.9375 93.730469 113.40625 C 94.28125 111.871094 94.867188 110.355469 95.492188 108.851562 C 96.113281 107.347656 96.773438 105.859375 97.472656 104.390625 C 98.167969 102.917969 98.902344 101.464844 99.667969 100.027344 C 100.4375 98.59375 101.242188 97.179688 102.078125 95.78125 C 102.914062 94.386719 103.789062 93.011719 104.691406 91.660156 C 105.597656 90.304688 106.535156 88.976562 107.507812 87.667969 C 108.476562 86.363281 109.480469 85.078125 110.511719 83.820312 C 111.546875 82.5625 112.613281 81.332031 113.707031 80.125 C 114.800781 78.917969 115.921875 77.742188 117.074219 76.589844 C 118.226562 75.441406 119.40625 74.320312 120.613281 73.226562 C 121.820312 72.132812 123.054688 71.070312 124.316406 70.039062 C 125.574219 69.007812 126.859375 68.003906 128.167969 67.035156 C 129.476562 66.066406 130.808594 65.128906 132.164062 64.226562 C 133.519531 63.324219 134.894531 62.453125 136.292969 61.617188 C 137.6875 60.78125 139.105469 59.976562 140.542969 59.210938 C 141.980469 58.445312 143.433594 57.710938 144.90625 57.015625 C 146.378906 56.320312 147.871094 55.664062 149.375 55.039062 C 150.878906 54.417969 152.398438 53.832031 153.933594 53.285156 C 155.46875 52.738281 157.015625 52.226562 158.574219 51.753906 C 160.132812 51.28125 161.703125 50.847656 163.28125 50.453125 C 164.863281 50.058594 166.453125 49.703125 168.050781 49.386719 C 169.648438 49.066406 171.253906 48.789062 172.863281 48.550781 C 174.476562 48.3125 176.09375 48.113281 177.714844 47.957031 C 179.335938 47.796875 180.960938 47.675781 182.585938 47.597656 C 184.214844 47.519531 185.84375 47.480469 187.472656 47.480469 C 189.101562 47.480469 190.730469 47.519531 192.355469 47.601562 C 193.984375 47.679688 195.609375 47.800781 197.230469 47.960938 C 198.851562 48.121094 200.464844 48.320312 202.078125 48.558594 C 203.6875 48.796875 205.292969 49.078125 206.890625 49.394531 C 208.488281 49.714844 210.078125 50.070312 211.660156 50.464844 C 213.238281 50.863281 214.808594 51.296875 216.367188 51.769531 C 217.925781 52.242188 219.472656 52.753906 221.007812 53.300781 C 222.539062 53.851562 224.058594 54.4375 225.5625 55.058594 C 227.070312 55.683594 228.558594 56.34375 230.03125 57.039062 C 231.503906 57.734375 232.957031 58.46875 234.394531 59.234375 C 235.832031 60.003906 237.246094 60.804688 238.644531 61.640625 C 240.042969 62.480469 241.417969 63.351562 242.773438 64.253906 C 244.125 65.160156 245.457031 66.097656 246.765625 67.066406 C 248.074219 68.039062 249.355469 69.039062 250.617188 70.070312 C 251.875 71.105469 253.109375 72.167969 254.316406 73.261719 C 255.523438 74.355469 256.699219 75.476562 257.851562 76.628906 C 259.003906 77.777344 260.125 78.957031 261.21875 80.164062 C 262.3125 81.371094 263.378906 82.601562 264.410156 83.863281 C 265.445312 85.121094 266.445312 86.402344 267.414062 87.710938 C 268.386719 89.019531 269.324219 90.347656 270.226562 91.703125 C 271.132812 93.054688 272.003906 94.429688 272.839844 95.828125 C 273.675781 97.222656 274.480469 98.640625 275.246094 100.074219 C 276.015625 101.511719 276.746094 102.964844 277.441406 104.4375 C 278.136719 105.90625 278.796875 107.394531 279.421875 108.898438 C 280.042969 110.402344 280.628906 111.921875 281.175781 113.453125 C 281.726562 114.988281 282.234375 116.53125 282.707031 118.089844 C 283.179688 119.648438 283.613281 121.214844 284.007812 122.792969 C 284.40625 124.371094 284.761719 125.960938 285.078125 127.558594 C 285.394531 129.152344 285.671875 130.757812 285.910156 132.367188 C 286.148438 133.976562 286.347656 135.589844 286.507812 137.210938 C 286.667969 138.832031 286.785156 140.453125 286.867188 142.078125 C 286.945312 143.707031 286.984375 145.332031 286.984375 146.960938 C 286.980469 148.585938 286.941406 150.210938 286.859375 151.835938 C 286.777344 153.460938 286.65625 155.082031 286.492188 156.703125 C 286.332031 158.320312 286.132812 159.933594 285.890625 161.542969 C 285.648438 163.152344 285.371094 164.753906 285.050781 166.347656 C 284.730469 167.945312 284.375 169.53125 283.976562 171.109375 C 283.582031 172.683594 283.144531 174.253906 282.671875 175.808594 C 282.195312 177.363281 281.683594 178.910156 281.136719 180.441406 C 280.585938 181.96875 280 183.488281 279.375 184.988281 C 278.75 186.492188 278.089844 187.980469 277.394531 189.449219 C 276.695312 190.917969 275.964844 192.371094 275.195312 193.804688 C 274.425781 195.238281 273.625 196.652344 272.785156 198.046875 C 271.949219 199.441406 271.074219 200.816406 270.171875 202.167969 C 269.265625 203.519531 268.328125 204.851562 267.355469 206.15625 C 266.386719 207.460938 265.386719 208.746094 264.351562 210 C 263.316406 211.257812 262.253906 212.488281 261.160156 213.695312 C 260.066406 214.898438 258.945312 216.078125 257.792969 217.226562 C 256.640625 218.378906 255.460938 219.5 254.253906 220.589844 C 253.050781 221.683594 251.816406 222.746094 250.558594 223.777344 C 249.300781 224.808594 248.015625 225.808594 246.707031 226.777344 C 245.398438 227.746094 244.070312 228.683594 242.714844 229.585938 C 241.363281 230.492188 239.984375 231.359375 238.589844 232.199219 C 237.191406 233.035156 235.777344 233.835938 234.339844 234.601562 C 232.90625 235.371094 231.453125 236.101562 229.980469 236.796875 C 228.507812 237.492188 227.019531 238.152344 225.515625 238.773438 C 224.011719 239.398438 222.492188 239.984375 220.960938 240.53125 C 219.425781 241.082031 217.882812 241.589844 216.324219 242.066406 C 214.765625 242.539062 213.199219 242.972656 211.617188 243.367188 C 210.039062 243.765625 208.449219 244.121094 206.855469 244.4375 C 205.257812 244.757812 203.652344 245.035156 202.042969 245.277344 C 200.433594 245.515625 198.816406 245.714844 197.195312 245.875 C 195.578125 246.035156 193.953125 246.15625 192.328125 246.238281 C 190.699219 246.320312 189.074219 246.359375 187.445312 246.363281 Z M 187.445312 246.363281 " fill-opacity="1" fill-rule="nonzero"/></svg>