<svg width="53" height="16" viewBox="0 0 53 16" fill="none" xmlns="http://www.w3.org/2000/svg">
<g clip-path="url(#clip0_9_161)">
<path fill-rule="evenodd" clip-rule="evenodd" d="M20.9503 11.4934C21.9576 11.5656 23.1314 10.7831 23.5449 10.3363C24.9822 8.78101 25.0169 6.53198 23.5698 4.90313C23.0315 4.29682 21.7662 3.62669 20.9656 3.72103H18.0673V11.4837L20.9573 11.4934H20.9503ZM19.7017 9.81187V5.39289C20.1553 5.36313 20.6105 5.36313 21.0641 5.39289C21.4211 5.43429 21.7616 5.56609 22.0534 5.77583C23.7183 6.91352 23.0246 9.62596 21.0364 9.80771C20.5921 9.83895 20.1462 9.84034 19.7017 9.81187Z" fill="#008CEB"/>
<path fill-rule="evenodd" clip-rule="evenodd" d="M46.3943 11.5073H48.0467V9.83405H51.3252L51.3349 11.499H52.9873V8.74075C52.9873 7.90829 53.0567 6.87049 52.8486 6.11711C52.6596 5.42741 52.2502 4.81847 51.6828 4.38319C51.1154 3.9479 50.4212 3.71016 49.706 3.70623C48.9909 3.7023 48.2941 3.93239 47.722 4.36142C47.1499 4.79044 46.7338 5.39485 46.5372 6.08242C46.3152 6.82609 46.3901 7.89303 46.3901 8.71855C46.3901 9.65091 46.3804 10.5888 46.3901 11.5212L46.3943 11.5073ZM48.0481 8.15109C48.0384 7.45737 47.9648 6.71509 48.2909 6.18093C48.434 5.93501 48.6397 5.73138 48.8871 5.59076C49.1344 5.45014 49.4146 5.37755 49.6991 5.38038C49.9822 5.38247 50.2599 5.45797 50.505 5.59951C50.7501 5.74105 50.9543 5.94377 51.0977 6.18787C51.4195 6.74284 51.3432 7.43656 51.3349 8.15248L48.0481 8.15109Z" fill="#008CEB"/>
<path fill-rule="evenodd" clip-rule="evenodd" d="M27.4976 11.506H29.1445C29.1445 11.1564 29.1001 10.0867 29.1597 9.83279H32.4258L32.4369 11.5046H34.0865C34.0782 10.5778 34.0865 9.65242 34.0865 8.72977C34.0865 7.93894 34.16 6.80679 33.9478 6.10475C33.7575 5.41595 33.3475 4.80816 32.78 4.37388C32.2125 3.93961 31.5187 3.70263 30.8041 3.69902C30.0896 3.6954 29.3934 3.92535 28.8215 4.35387C28.2497 4.78238 27.8335 5.386 27.6363 6.07284C27.4157 6.7943 27.4907 7.89731 27.4907 8.70064C27.4907 9.62744 27.4698 10.5778 27.4907 11.5019L27.4976 11.506ZM29.1459 8.15121C29.1348 7.4575 29.064 6.70551 29.39 6.18244C29.5331 5.93716 29.738 5.73365 29.9842 5.59222C30.2305 5.45078 30.5095 5.37635 30.7934 5.37635C31.0774 5.37635 31.3564 5.45078 31.6026 5.59222C31.8489 5.73365 32.0538 5.93716 32.1968 6.18244C32.5201 6.73742 32.4424 7.44223 32.4369 8.14844L29.1459 8.15121Z" fill="#008CEB"/>
<path fill-rule="evenodd" clip-rule="evenodd" d="M36.9847 6.7526L36.9612 7.90833C36.9612 8.87954 36.914 10.6929 36.9612 11.4824H38.5761C38.6136 10.9274 38.5179 6.98569 38.6191 6.85943C38.6191 6.09357 39.4197 5.38043 40.2272 5.37765C40.6469 5.37513 41.0511 5.5364 41.3538 5.82718C41.5591 6.01449 41.8741 6.44182 41.8685 6.87331C41.9434 6.91632 41.8838 11.0356 41.9074 11.4921H43.5237L43.5112 6.78174C43.5515 6.41268 43.3295 5.84244 43.1866 5.55386C42.9216 5.00399 42.5079 4.53931 41.9924 4.21244C41.4769 3.88557 40.8801 3.70957 40.2698 3.70437C39.6594 3.69917 39.0598 3.86498 38.5388 4.18303C38.0178 4.50107 37.5962 4.95864 37.3219 5.50391C37.1831 5.78833 36.9501 6.37383 36.9847 6.7526Z" fill="#008CEB"/>
<path d="M7.57678 15.1536C11.7613 15.1536 15.1536 11.7613 15.1536 7.57678C15.1536 3.39224 11.7613 0 7.57678 0C3.39224 0 0 3.39224 0 7.57678C0 11.7613 3.39224 15.1536 7.57678 15.1536Z" fill="#008CEB"/>
<path d="M11.9915 7.6087V9.74118C11.9915 9.87993 11.9319 9.90906 11.8153 9.84108C11.6594 9.74753 11.4972 9.665 11.3297 9.59411C10.8241 9.39266 10.2763 9.31973 9.73557 9.38184C9.14535 9.4584 8.5661 9.60368 8.0096 9.81472C7.45463 10.002 6.91076 10.2046 6.34468 10.3614C5.87583 10.5006 5.38789 10.5648 4.89898 10.5514C4.35714 10.5304 3.83055 10.3662 3.3728 10.0756C3.31528 10.0409 3.2681 9.9915 3.23613 9.93246C3.20417 9.87342 3.1886 9.80689 3.19104 9.73979C3.19104 8.34311 3.19104 6.94643 3.19104 5.54974C3.19104 5.48176 3.19104 5.40129 3.25209 5.3666C3.31314 5.33192 3.37557 5.3888 3.4283 5.42349C3.92537 5.75959 4.51409 5.93403 5.11403 5.92296C5.543 5.90536 5.96724 5.8264 6.37382 5.68849C6.95099 5.50951 7.50874 5.27226 8.0762 5.07108C8.51793 4.90132 8.97085 4.76225 9.43173 4.65485C9.82727 4.56222 10.2377 4.55249 10.6372 4.62628C11.0367 4.70006 11.4165 4.85576 11.7529 5.08356C11.83 5.13081 11.8932 5.19775 11.9358 5.27748C11.9785 5.35722 11.9992 5.44688 11.9957 5.53726C11.9957 6.23097 11.9957 6.92469 11.9957 7.61841L11.9915 7.6087Z" fill="#FEFEFE"/>
</g>
<defs>
<clipPath id="clip0_9_161">
<rect width="53" height="15.1536" fill="white"/>
</clipPath>
</defs>
</svg>
