<svg width="32" height="32" viewBox="0 0 32 32" fill="none" xmlns="http://www.w3.org/2000/svg">
<g clip-path="url(#clip0_9_176)">
<path fill-rule="evenodd" clip-rule="evenodd" d="M16 32C24.8364 32 32 24.8366 32 16C32 7.16342 24.8364 0 16 0C7.16355 0 0 7.16342 0 16C0 24.8366 7.16355 32 16 32Z" fill="#FD6542"/>
<path d="M11.2202 13.7575L11.376 12.5311H9.50001L9.57803 11.9022C9.61431 11.5786 9.67921 11.3052 9.77262 11.0821C9.85249 10.8792 9.97153 10.6948 10.1227 10.54C10.2588 10.4046 10.4222 10.3013 10.6014 10.2373C10.7934 10.1721 10.9947 10.1404 11.197 10.1434H11.4228C11.4893 10.1438 11.5557 10.1385 11.6212 10.1274C11.6734 10.1198 11.7228 10.0991 11.7652 10.0672C11.8038 10.0337 11.8287 9.9868 11.8353 9.93553L11.991 9.04376C11.7017 8.93605 11.3959 8.88209 11.088 8.88443C10.7015 8.88161 10.3176 8.95102 9.95547 9.08923C9.61118 9.22072 9.29518 9.41947 9.02513 9.67441C8.74766 9.93992 8.52075 10.2558 8.35591 10.606C8.17927 10.9722 8.06247 11.3863 8.00558 11.8483L7.91988 12.5329H6.83057L6.74491 13.2256C6.72939 13.3581 6.75403 13.4576 6.81879 13.5241C6.89121 13.5947 6.98161 13.6431 7.07966 13.6635L7.77239 13.775L6.73694 22.5175H7.40615C7.645 22.5175 7.82923 22.4552 7.95876 22.3305C8.0883 22.2058 8.18958 22.0293 8.2626 21.801L8.64385 20.2403L9.40667 13.7575H11.2202ZM13.2517 20.5418L14.6528 8.75793H13.0041L11.6095 20.543L13.2517 20.5418ZM16.2252 12.4197L15.2755 20.543H16.918L17.8754 12.4208L16.2252 12.4197ZM18.284 9.52142C18.2263 9.38661 18.1444 9.26405 18.0426 9.16001C17.9415 9.05653 17.8228 8.97281 17.6923 8.91304C17.5639 8.85342 17.4246 8.82261 17.2837 8.8227C17.1465 8.82289 17.0111 8.85374 16.8868 8.91304C16.7586 8.97288 16.6425 9.05665 16.5444 9.16001C16.4445 9.26641 16.3644 9.39064 16.3083 9.52654C16.2492 9.66597 16.2191 9.81643 16.2199 9.96837C16.2189 10.1191 16.2489 10.2683 16.3083 10.4063C16.3652 10.5396 16.4442 10.6619 16.5417 10.7677C16.6371 10.8708 16.7507 10.9546 16.8765 11.0147C17.0019 11.0749 17.1389 11.1058 17.2774 11.105C17.4172 11.1055 17.5554 11.0747 17.6823 11.0147C17.812 10.9536 17.9304 10.87 18.0323 10.7677C18.1365 10.664 18.221 10.5415 18.2814 10.4063C18.3437 10.2691 18.3757 10.1196 18.375 9.96837C18.3765 9.81509 18.3464 9.66321 18.2867 9.52264L18.284 9.52142ZM20.9894 16.6729C21.1171 16.2605 21.2812 15.8608 21.4796 15.4787C21.6535 15.1403 21.8595 14.8202 22.0946 14.5231C22.3125 14.2522 22.5382 14.0414 22.7718 13.8906C23.0053 13.7398 23.2363 13.6642 23.4645 13.6638C23.8327 13.6638 24.1173 13.8137 24.3183 14.1135C24.5193 14.4133 24.6192 14.8632 24.618 15.4633C24.6175 15.7715 24.5915 16.0792 24.5403 16.3828C24.4897 16.6874 24.4142 16.9872 24.3145 17.2789C24.2184 17.5597 24.0958 17.8303 23.9485 18.0869C23.813 18.3262 23.6483 18.547 23.4583 18.7438C23.2845 18.9239 23.0818 19.0721 22.8589 19.182C22.64 19.2882 22.4005 19.3426 22.1582 19.341C21.9015 19.3396 21.6471 19.2912 21.4072 19.1979C21.1463 19.0964 20.9179 18.9229 20.7474 18.6968L20.9894 16.6729ZM21.2694 12.9784C21.2694 12.782 21.2214 12.6373 21.1254 12.5443C21.0295 12.4514 20.8907 12.4049 20.7091 12.4049H19.8677L18.5752 23.2422H20.2019L20.6067 19.85C20.823 20.1037 21.0896 20.3073 21.3889 20.4472C21.7081 20.594 22.0548 20.6674 22.4046 20.6623C22.76 20.6628 23.112 20.5911 23.4401 20.4514C23.7765 20.3083 24.0892 20.1127 24.3669 19.8714C24.6627 19.6127 24.9254 19.3171 25.1491 18.9913C25.388 18.6467 25.5902 18.277 25.7524 17.8884C25.921 17.4844 26.0501 17.0644 26.1378 16.6343C26.2284 16.1945 26.274 15.7463 26.2738 15.2968C26.2738 14.7976 26.2232 14.3609 26.1222 13.9867C26.0211 13.6124 25.877 13.2993 25.69 13.0473C25.513 12.8033 25.2788 12.6088 25.009 12.4817C24.7261 12.3535 24.4195 12.2893 24.1102 12.2935C23.8302 12.2935 23.5523 12.3433 23.289 12.4408C23.014 12.5431 22.7545 12.6851 22.5186 12.8624C22.2609 13.0558 22.0235 13.2759 21.8102 13.5192C21.5759 13.7856 21.3662 14.0734 21.1837 14.3791L21.2691 12.9777L21.2694 12.9784Z" fill="white"/>
</g>
<defs>
<clipPath id="clip0_9_176">
<rect width="32" height="32" fill="white"/>
</clipPath>
</defs>
</svg>
