<svg width="53" height="17" viewBox="0 0 53 17" fill="none" xmlns="http://www.w3.org/2000/svg">
<g clip-path="url(#clip0_9_183)">
<path fill-rule="evenodd" clip-rule="evenodd" d="M14.5859 13.9316C12.9538 15.4829 10.7802 16.335 8.52872 16.3062C6.26603 16.3404 4.07974 15.4881 2.43716 13.9316C1.6643 13.1821 1.04984 12.2851 0.630223 11.2936C0.210606 10.3022 -0.00561523 9.23663 -0.00561523 8.16006C-0.00561523 7.0835 0.210606 6.0179 0.630223 5.02648C1.04984 4.03506 1.6643 3.13802 2.43716 2.38857C4.07765 0.822782 6.26808 -0.0350947 8.5356 0.000127735C10.7871 -0.0286792 12.9607 0.823481 14.5927 2.3748C15.3665 3.12376 15.9817 4.02065 16.4019 5.01213C16.822 6.00362 17.0385 7.06946 17.0385 8.1463C17.0385 9.22313 16.822 10.289 16.4019 11.2805C15.9817 12.2719 15.3665 13.1688 14.5927 13.9178M8.5356 2.65701C7.81692 2.65006 7.10429 2.78879 6.44069 3.06482C5.7771 3.34085 5.17631 3.74847 4.67458 4.26307C4.17285 4.77766 3.78057 5.38858 3.52142 6.05894C3.26228 6.72931 3.14163 7.44523 3.16677 8.1635C3.16677 8.86674 3.30528 9.56309 3.5744 10.2128C3.84352 10.8625 4.23797 11.4528 4.73523 11.9501C5.2325 12.4474 5.82283 12.8418 6.47254 13.1109C7.12225 13.3801 7.8186 13.5186 8.52184 13.5186C9.22507 13.5186 9.92142 13.3801 10.5711 13.1109C11.2208 12.8418 11.8112 12.4474 12.3084 11.9501C12.8057 11.4528 13.2002 10.8625 13.4693 10.2128C13.7384 9.56309 13.8769 8.86674 13.8769 8.1635C13.9019 7.44756 13.7821 6.73394 13.5247 6.06543C13.2672 5.39691 12.8774 4.78727 12.3786 4.27306C11.8798 3.75885 11.2823 3.35066 10.622 3.07297C9.96162 2.79527 9.25197 2.65379 8.5356 2.65701ZM34.6914 1.92052L28.1456 16.5196L27.7739 16.4508C25.9017 16.1135 25.5231 15.6455 24.649 13.7457L19.7413 3.05623H17.8966V0.461297H24.8692V3.05623H23.2035L27.1475 11.901L30.9746 3.05623H28.9096V0.461297H34.6914V1.92052ZM50.5226 13.9316C48.8695 15.4582 46.7019 16.306 44.4517 16.306C42.2015 16.306 40.0339 15.4582 38.3808 13.9316C37.6079 13.1821 36.9935 12.2851 36.5739 11.2936C36.1542 10.3022 35.938 9.23663 35.938 8.16006C35.938 7.0835 36.1542 6.0179 36.5739 5.02648C36.9935 4.03506 37.6079 3.13802 38.3808 2.38857C40.0339 0.861886 42.2015 0.0140778 44.4517 0.0140778C46.7019 0.0140778 48.8695 0.861886 50.5226 2.38857C51.2981 3.13654 51.9148 4.0331 52.3361 5.02472C52.7573 6.01633 52.9744 7.08267 52.9744 8.16006C52.9744 9.23745 52.7573 10.3038 52.3361 11.2954C51.9148 12.287 51.2981 13.1836 50.5226 13.9316ZM44.4999 2.65701C43.7809 2.6501 43.068 2.7888 42.404 3.06476C41.7401 3.34071 41.1388 3.74821 40.6366 4.2627C40.1343 4.7772 39.7414 5.38804 39.4814 6.05843C39.2215 6.72883 39.1 7.44489 39.1242 8.1635C39.1242 8.86674 39.2627 9.56309 39.5318 10.2128C39.8009 10.8625 40.1954 11.4528 40.6926 11.9501C41.1899 12.4474 41.7802 12.8418 42.4299 13.1109C43.0797 13.3801 43.776 13.5186 44.4792 13.5186C45.1825 13.5186 45.8788 13.3801 46.5285 13.1109C47.1782 12.8418 47.7686 12.4474 48.2658 11.9501C48.7631 11.4528 49.1576 10.8625 49.4267 10.2128C49.6958 9.56309 49.8343 8.86674 49.8343 8.1635C49.8603 7.4479 49.7414 6.73443 49.4847 6.06594C49.228 5.39745 48.8388 4.78774 48.3406 4.27343C47.8424 3.75912 47.2453 3.35081 46.5853 3.07304C45.9253 2.79527 45.216 2.65376 44.4999 2.65701Z" fill="#4B2489"/>
</g>
<defs>
<clipPath id="clip0_9_183">
<rect width="53" height="16.5195" fill="white"/>
</clipPath>
</defs>
</svg>
