<svg width="53" height="40" viewBox="0 0 53 40" fill="none" xmlns="http://www.w3.org/2000/svg">
<g clip-path="url(#clip0_20_1014)">
<rect width="53" height="40" fill="white"/>
<g clip-path="url(#clip1_20_1014)">
<path d="M37.8971 29.8145H16.0928C15.9434 29.8042 15.7934 29.8248 15.6523 29.875C15.5111 29.9251 15.3818 30.0038 15.2723 30.106C15.1629 30.2083 15.0756 30.3319 15.0159 30.4693C14.9562 30.6067 14.9254 30.7549 14.9254 30.9047C14.9254 31.0545 14.9562 31.2027 15.0159 31.3401C15.0756 31.4775 15.1629 31.6011 15.2723 31.7033C15.3818 31.8056 15.5111 31.8842 15.6523 31.9344C15.7934 31.9845 15.9434 32.0051 16.0928 31.9949H37.8971C38.0465 32.0051 38.1965 31.9845 38.3376 31.9344C38.4788 31.8842 38.6081 31.8056 38.7176 31.7033C38.8271 31.6011 38.9144 31.4775 38.974 31.3401C39.0337 31.2027 39.0645 31.0545 39.0645 30.9047C39.0645 30.7549 39.0337 30.6067 38.974 30.4693C38.9144 30.3319 38.8271 30.2083 38.7176 30.106C38.6081 30.0038 38.4788 29.9251 38.3376 29.875C38.1965 29.8248 38.0465 29.8042 37.8971 29.8145ZM17.4511 26.9753C17.1613 26.9753 16.8834 27.0905 16.6784 27.2954C16.4735 27.5003 16.3584 27.7783 16.3584 28.0681C16.3584 28.3579 16.4735 28.6359 16.6784 28.8408C16.8834 29.0457 17.1613 29.1609 17.4511 29.1609H36.5388C36.815 29.1419 37.0738 29.0189 37.2628 28.8165C37.4518 28.6141 37.5569 28.3475 37.5569 28.0706C37.5569 27.7937 37.4518 27.5272 37.2628 27.3248C37.0738 27.1224 36.815 26.9993 36.5388 26.9804H36.263V17.1557H36.5337C36.6095 17.1631 36.6861 17.1545 36.7584 17.1305C36.8307 17.1066 36.8972 17.0677 36.9537 17.0165C37.0101 16.9653 37.0552 16.9028 37.086 16.8332C37.1169 16.7635 37.1328 16.6881 37.1328 16.6119C37.1328 16.5357 37.1169 16.4604 37.086 16.3907C37.0552 16.321 37.0101 16.2586 36.9537 16.2073C36.8972 16.1561 36.8307 16.1173 36.7584 16.0933C36.6861 16.0693 36.6095 16.0607 36.5337 16.0681H17.4511C17.3753 16.0607 17.2987 16.0693 17.2264 16.0933C17.1541 16.1173 17.0876 16.1561 17.0312 16.2073C16.9747 16.2586 16.9296 16.321 16.8988 16.3907C16.8679 16.4604 16.852 16.5357 16.852 16.6119C16.852 16.6881 16.8679 16.7635 16.8988 16.8332C16.9296 16.9028 16.9747 16.9653 17.0312 17.0165C17.0876 17.0677 17.1541 17.1066 17.2264 17.1305C17.2987 17.1545 17.3753 17.1631 17.4511 17.1557H17.7269V26.9702H17.4511V26.9753ZM34.0826 17.166V26.9753H30.8145V17.166H34.0826ZM28.629 17.166V26.9753H25.3609V17.166H28.629ZM19.9073 17.166H23.1703V26.9753H19.9022V17.166H19.9073ZM16.0928 15.0979H37.9073C38.1726 15.1096 38.433 15.024 38.6395 14.857C38.846 14.69 38.9842 14.4532 39.0282 14.1913C39.0721 13.9295 39.0188 13.6605 38.8781 13.4353C38.7375 13.21 38.5193 13.044 38.2648 12.9685L27.4392 8.10213C27.2994 8.03991 27.148 8.00775 26.995 8.00775C26.8419 8.00775 26.6906 8.03991 26.5507 8.10213L15.6435 13.0043C15.4128 13.1053 15.2241 13.283 15.1093 13.5071C14.9946 13.7313 14.9607 13.9882 15.0136 14.2345C15.0664 14.4807 15.2027 14.7011 15.3994 14.8585C15.596 15.0158 15.841 15.1004 16.0928 15.0979Z" fill="black"/>
</g>
</g>
<defs>
<clipPath id="clip0_20_1014">
<rect width="53" height="40" fill="white"/>
</clipPath>
<clipPath id="clip1_20_1014">
<rect width="24" height="24" fill="white" transform="translate(15 8)"/>
</clipPath>
</defs>
</svg>
