<svg width="50" height="19" viewBox="0 0 50 19" fill="none" xmlns="http://www.w3.org/2000/svg">
<path d="M16.3865 3.09415L29.2808 3.09416L29.2808 10.8302L23.8714 10.8302L29.2808 15.7811L24.6855 15.7811L19.3805 10.8302L19.3805 15.7811L16.3865 15.7811L16.3865 7.91666L25.8406 7.91667L25.8406 6.03416L16.3865 6.03415L16.3865 3.09415Z" fill="black"/>
<path d="M30.6195 15.7811L33.7708 15.7811L33.7708 3.06845L30.6195 3.06845L30.6195 15.7811Z" fill="black"/>
<path d="M5.38333 12.7126L5.38331 3.09415L2.91478 3.09415C2.46837 3.09415 2.12693 3.42963 2.12693 3.84169C2.12693 6.11164 2.1007 12.79 2.10071 15.0075C2.10071 15.4201 2.44215 15.7811 2.86232 15.7811C4.56924 15.7811 9.47987 15.7811 10.1886 15.7811L10.1886 12.7126L5.38333 12.7126Z" fill="black"/>
<path d="M11.8168 18.9528C12.1061 18.9528 14.3118 18.9528 15.0473 18.9528C15.0473 18.9528 15.0473 12.6867 15.0473 12.5836C13.9967 12.5836 12.8943 12.5836 11.8168 12.5836C11.8168 14.6981 11.8168 16.8125 11.8168 18.9528Z" fill="black"/>
<path d="M6.95885 3.09409C6.95885 3.14605 6.95885 6.26564 6.95885 6.26564C8.40325 6.26564 10.2412 6.26564 11.8167 6.26564C11.8167 8.45811 11.8167 11.0107 11.8167 11.0107C12.5523 11.0107 14.758 11.0107 15.0472 11.0107L15.0472 3.86806C15.0472 3.45509 14.7053 3.11962 14.2858 3.09409C12.7103 3.09409 8.98078 3.09409 6.95885 3.09409Z" fill="black"/>
<path d="M6.95886 7.81269C6.95886 8.87018 6.95886 9.92767 6.95886 11.0362C7.22148 11.0362 7.51034 11.0362 7.77296 11.0362C8.5086 11.0362 9.42712 11.0362 10.1627 11.0362C10.1627 11.0362 10.1627 7.86466 10.1627 7.81269C9.112 7.81269 8.03557 7.81269 6.95886 7.81269ZM9.21735 10.0562C8.90225 10.0562 8.53447 10.0562 8.24524 10.0562C8.14064 10.0562 8.03557 10.0562 7.90426 10.0562C7.90426 9.61772 7.90426 9.20566 7.90426 8.76717C8.35058 8.76717 8.77103 8.76717 9.21735 8.76717C9.21735 8.79269 9.21735 10.0562 9.21735 10.0562Z" fill="black"/>
<path d="M49.2384 12.5837L49.2384 17.3283C49.2384 17.7408 48.8706 18.0761 48.4511 18.0761L43.6192 18.0761L43.6192 18.8496L49.2384 18.8496L49.2652 18.8496C49.6589 18.8496 49.9998 18.5144 49.9998 18.1018L49.9998 18.0761L49.9998 12.5837L49.2384 12.5837Z" fill="black"/>
<path d="M0.787761 6.24019L0.787751 1.49517C0.78775 1.08311 1.10285 0.773159 1.52302 0.773159L6.35502 0.77316C6.38126 0.77316 6.38126 0.747635 6.38126 0.747635L6.38126 0.025624C6.38126 0.025624 6.38126 9.85406e-05 6.35502 9.85312e-05L0.787748 9.65354e-05C0.341336 9.63754e-05 -0.000103476 0.335577 -0.000102596 0.773158L-9.16041e-05 6.24019C-9.15527e-05 6.26572 0.0261517 6.26572 0.0261517 6.26572L0.761518 6.26572C0.761518 6.26572 0.787761 6.26572 0.787761 6.24019Z" fill="black"/>
<path d="M47.8728 6.24022L47.8728 3.0942L35.1365 3.09419L35.1365 7.81278L35.1365 10.9852L43.6194 10.9852L43.6194 12.5579L35.1365 12.5579L35.1365 15.7295L47.8728 15.7295L47.8728 7.83922L39.3909 7.83922L39.3909 6.24022L47.8728 6.24022Z" fill="black"/>
</svg>
