<svg width="140" height="178" viewBox="0 0 140 178" fill="none" xmlns="http://www.w3.org/2000/svg">
<rect x="1.36603" y="39.2618" width="75.7916" height="75.1267" transform="rotate(-30 1.36603 39.2618)" stroke="#5C948A" stroke-width="2"/>
<rect x="-1.22474" y="0.707107" width="98.6049" height="98.6049" transform="matrix(-0.965926 -0.258819 -0.258819 0.965926 126.849 33.9827)" stroke="#5C948A" stroke-width="2"/>
<rect x="24" y="27.8448" width="115" height="114" fill="#5C948A" stroke="#5C948A" stroke-width="2"/>
<path d="M80.0044 82.739C75.1182 82.7757 73.3203 81.9418 72.8081 80.0301C72.2203 77.8367 73.843 75.7627 77.2439 74.8514C80.8258 73.8916 82.6123 75.2462 83.4071 77.7293L87.8544 76.5377C86.7861 73.1142 83.8211 70.5008 79.3403 70.6015L78.1595 66.1945L72.1224 67.8121L73.2871 72.1587C69.6097 74.05 67.1498 77.4267 68.1905 81.3105C69.436 85.9591 73.8997 87.2434 79.8754 87.0872C85.2298 86.9466 86.7105 88.4479 87.2119 90.3194C87.584 91.7079 87.1911 94.1857 82.7438 95.3773C78.5983 96.4881 76.4723 95.0735 75.6147 92.7582L71.1875 93.9445C72.6098 98.2868 76.5733 99.8777 80.6581 99.6675L81.8282 104.034L87.8652 102.417L86.7059 98.0901C90.4305 96.2941 92.9403 93.1844 91.8349 89.0591C90.3036 83.344 84.8906 82.7023 80.0044 82.739Z" fill="white"/>
<path d="M38.0156 172.157V173.845H31.9688V172.157H38.0156ZM32.625 162.47V173.845H30.4766V162.47H32.625ZM37.2266 167.165V168.814H31.9688V167.165H37.2266ZM37.9922 162.47V164.165H31.9688V162.47H37.9922ZM44.0078 172.048V168.149C44.0078 167.863 43.9583 167.616 43.8594 167.407C43.7604 167.199 43.6094 167.037 43.4062 166.923C43.2031 166.808 42.9453 166.751 42.6328 166.751C42.3568 166.751 42.1146 166.798 41.9062 166.892C41.7031 166.985 41.5469 167.118 41.4375 167.29C41.3281 167.457 41.2734 167.649 41.2734 167.868H39.2031C39.2031 167.519 39.2865 167.189 39.4531 166.876C39.6198 166.558 39.8568 166.277 40.1641 166.032C40.4766 165.782 40.849 165.587 41.2812 165.446C41.7188 165.306 42.2083 165.235 42.75 165.235C43.3906 165.235 43.9609 165.345 44.4609 165.564C44.9661 165.777 45.362 166.1 45.6484 166.532C45.9401 166.965 46.0859 167.509 46.0859 168.165V171.853C46.0859 172.274 46.112 172.636 46.1641 172.939C46.2214 173.235 46.3047 173.493 46.4141 173.712V173.845H44.3125C44.2135 173.631 44.138 173.36 44.0859 173.032C44.0339 172.699 44.0078 172.371 44.0078 172.048ZM44.2969 168.696L44.3125 169.923H43.0078C42.6849 169.923 42.401 169.957 42.1562 170.024C41.9115 170.087 41.7109 170.181 41.5547 170.306C41.3984 170.426 41.2812 170.571 41.2031 170.743C41.125 170.91 41.0859 171.1 41.0859 171.314C41.0859 171.522 41.1328 171.709 41.2266 171.876C41.3255 172.043 41.4661 172.176 41.6484 172.274C41.8359 172.368 42.0547 172.415 42.3047 172.415C42.6693 172.415 42.987 172.342 43.2578 172.196C43.5286 172.045 43.7396 171.863 43.8906 171.649C44.0417 171.436 44.1224 171.233 44.1328 171.04L44.7266 171.931C44.6536 172.144 44.5443 172.371 44.3984 172.61C44.2526 172.85 44.0651 173.074 43.8359 173.282C43.6068 173.491 43.3307 173.662 43.0078 173.798C42.6849 173.933 42.3099 174.001 41.8828 174.001C41.3359 174.001 40.8464 173.892 40.4141 173.673C39.9818 173.454 39.6406 173.155 39.3906 172.774C39.1406 172.394 39.0156 171.962 39.0156 171.478C39.0156 171.03 39.099 170.634 39.2656 170.29C39.4323 169.946 39.6797 169.657 40.0078 169.423C40.3359 169.183 40.7422 169.004 41.2266 168.884C41.7161 168.759 42.276 168.696 42.9062 168.696H44.2969ZM52.5938 171.532C52.5938 171.355 52.5469 171.196 52.4531 171.056C52.3594 170.915 52.1823 170.787 51.9219 170.673C51.6667 170.553 51.2917 170.441 50.7969 170.337C50.3594 170.243 49.9557 170.126 49.5859 169.985C49.2161 169.845 48.8984 169.676 48.6328 169.478C48.3672 169.274 48.1589 169.037 48.0078 168.767C47.862 168.491 47.7891 168.173 47.7891 167.814C47.7891 167.465 47.8646 167.136 48.0156 166.829C48.1667 166.517 48.3854 166.243 48.6719 166.009C48.9583 165.769 49.3073 165.582 49.7188 165.446C50.1302 165.306 50.5938 165.235 51.1094 165.235C51.8281 165.235 52.4453 165.353 52.9609 165.587C53.4818 165.821 53.8802 166.144 54.1562 166.556C54.4323 166.962 54.5703 167.42 54.5703 167.931H52.5078C52.5078 167.707 52.4557 167.504 52.3516 167.321C52.2526 167.139 52.099 166.993 51.8906 166.884C51.6823 166.769 51.4193 166.712 51.1016 166.712C50.8151 166.712 50.5729 166.759 50.375 166.853C50.1823 166.946 50.0365 167.069 49.9375 167.22C49.8385 167.371 49.7891 167.537 49.7891 167.72C49.7891 167.855 49.8151 167.978 49.8672 168.087C49.9245 168.191 50.0156 168.287 50.1406 168.376C50.2656 168.465 50.4349 168.545 50.6484 168.618C50.8672 168.691 51.1354 168.761 51.4531 168.829C52.0833 168.954 52.6328 169.121 53.1016 169.329C53.5755 169.532 53.9453 169.803 54.2109 170.142C54.4766 170.48 54.6094 170.912 54.6094 171.439C54.6094 171.814 54.5286 172.157 54.3672 172.47C54.2057 172.777 53.9714 173.045 53.6641 173.274C53.3568 173.504 52.9896 173.683 52.5625 173.814C52.1354 173.939 51.6536 174.001 51.1172 174.001C50.3411 174.001 49.6849 173.863 49.1484 173.587C48.612 173.306 48.2057 172.952 47.9297 172.524C47.6536 172.092 47.5156 171.644 47.5156 171.181H49.4922C49.5078 171.509 49.5964 171.772 49.7578 171.97C49.9193 172.168 50.1224 172.311 50.3672 172.399C50.6172 172.483 50.8802 172.524 51.1562 172.524C51.4688 172.524 51.7318 172.483 51.9453 172.399C52.1589 172.311 52.3203 172.194 52.4297 172.048C52.5391 171.897 52.5938 171.725 52.5938 171.532ZM58.6562 172.907L60.9219 165.392H63.1328L59.7422 175.126C59.6641 175.334 59.5625 175.561 59.4375 175.806C59.3177 176.051 59.1562 176.282 58.9531 176.501C58.75 176.725 58.4948 176.907 58.1875 177.048C57.8854 177.189 57.5182 177.259 57.0859 177.259C56.8984 177.259 56.7318 177.246 56.5859 177.22C56.4401 177.194 56.2865 177.16 56.125 177.118V175.571C56.1771 175.577 56.237 175.579 56.3047 175.579C56.3776 175.584 56.4401 175.587 56.4922 175.587C56.7943 175.587 57.0443 175.551 57.2422 175.478C57.4401 175.41 57.599 175.298 57.7188 175.142C57.8438 174.991 57.9479 174.793 58.0312 174.548L58.6562 172.907ZM57.5391 165.392L59.4531 171.618L59.7891 173.798L58.3672 174.056L55.3125 165.392H57.5391ZM72.6484 169.696H69.7188V168.009H72.6484C73.1276 168.009 73.5156 167.931 73.8125 167.774C74.1146 167.613 74.3359 167.394 74.4766 167.118C74.6172 166.837 74.6875 166.517 74.6875 166.157C74.6875 165.808 74.6172 165.483 74.4766 165.181C74.3359 164.879 74.1146 164.634 73.8125 164.446C73.5156 164.259 73.1276 164.165 72.6484 164.165H70.4219V173.845H68.2734V162.47H72.6484C73.5339 162.47 74.2891 162.629 74.9141 162.946C75.5443 163.259 76.0234 163.694 76.3516 164.251C76.6849 164.803 76.8516 165.433 76.8516 166.142C76.8516 166.876 76.6849 167.509 76.3516 168.04C76.0234 168.571 75.5443 168.98 74.9141 169.267C74.2891 169.553 73.5339 169.696 72.6484 169.696ZM82.9453 172.048V168.149C82.9453 167.863 82.8958 167.616 82.7969 167.407C82.6979 167.199 82.5469 167.037 82.3438 166.923C82.1406 166.808 81.8828 166.751 81.5703 166.751C81.2943 166.751 81.0521 166.798 80.8438 166.892C80.6406 166.985 80.4844 167.118 80.375 167.29C80.2656 167.457 80.2109 167.649 80.2109 167.868H78.1406C78.1406 167.519 78.224 167.189 78.3906 166.876C78.5573 166.558 78.7943 166.277 79.1016 166.032C79.4141 165.782 79.7865 165.587 80.2188 165.446C80.6562 165.306 81.1458 165.235 81.6875 165.235C82.3281 165.235 82.8984 165.345 83.3984 165.564C83.9036 165.777 84.2995 166.1 84.5859 166.532C84.8776 166.965 85.0234 167.509 85.0234 168.165V171.853C85.0234 172.274 85.0495 172.636 85.1016 172.939C85.1589 173.235 85.2422 173.493 85.3516 173.712V173.845H83.25C83.151 173.631 83.0755 173.36 83.0234 173.032C82.9714 172.699 82.9453 172.371 82.9453 172.048ZM83.2344 168.696L83.25 169.923H81.9453C81.6224 169.923 81.3385 169.957 81.0938 170.024C80.849 170.087 80.6484 170.181 80.4922 170.306C80.3359 170.426 80.2188 170.571 80.1406 170.743C80.0625 170.91 80.0234 171.1 80.0234 171.314C80.0234 171.522 80.0703 171.709 80.1641 171.876C80.263 172.043 80.4036 172.176 80.5859 172.274C80.7734 172.368 80.9922 172.415 81.2422 172.415C81.6068 172.415 81.9245 172.342 82.1953 172.196C82.4661 172.045 82.6771 171.863 82.8281 171.649C82.9792 171.436 83.0599 171.233 83.0703 171.04L83.6641 171.931C83.5911 172.144 83.4818 172.371 83.3359 172.61C83.1901 172.85 83.0026 173.074 82.7734 173.282C82.5443 173.491 82.2682 173.662 81.9453 173.798C81.6224 173.933 81.2474 174.001 80.8203 174.001C80.2734 174.001 79.7839 173.892 79.3516 173.673C78.9193 173.454 78.5781 173.155 78.3281 172.774C78.0781 172.394 77.9531 171.962 77.9531 171.478C77.9531 171.03 78.0365 170.634 78.2031 170.29C78.3698 169.946 78.6172 169.657 78.9453 169.423C79.2734 169.183 79.6797 169.004 80.1641 168.884C80.6536 168.759 81.2135 168.696 81.8438 168.696H83.2344ZM89.2344 172.907L91.5 165.392H93.7109L90.3203 175.126C90.2422 175.334 90.1406 175.561 90.0156 175.806C89.8958 176.051 89.7344 176.282 89.5312 176.501C89.3281 176.725 89.0729 176.907 88.7656 177.048C88.4635 177.189 88.0964 177.259 87.6641 177.259C87.4766 177.259 87.3099 177.246 87.1641 177.22C87.0182 177.194 86.8646 177.16 86.7031 177.118V175.571C86.7552 175.577 86.8151 175.579 86.8828 175.579C86.9557 175.584 87.0182 175.587 87.0703 175.587C87.3724 175.587 87.6224 175.551 87.8203 175.478C88.0182 175.41 88.1771 175.298 88.2969 175.142C88.4219 174.991 88.526 174.793 88.6094 174.548L89.2344 172.907ZM88.1172 165.392L90.0312 171.618L90.3672 173.798L88.9453 174.056L85.8906 165.392H88.1172ZM96.7656 167.126V173.845H94.7031V165.392H96.6484L96.7656 167.126ZM96.4609 169.314H95.8281C95.8281 168.725 95.8984 168.183 96.0391 167.689C96.1849 167.194 96.3984 166.764 96.6797 166.399C96.9609 166.03 97.3073 165.743 97.7188 165.54C98.1354 165.337 98.6172 165.235 99.1641 165.235C99.5443 165.235 99.8932 165.293 100.211 165.407C100.529 165.517 100.802 165.691 101.031 165.931C101.266 166.165 101.445 166.472 101.57 166.853C101.695 167.228 101.758 167.678 101.758 168.204V173.845H99.6953V168.415C99.6953 168.019 99.638 167.709 99.5234 167.485C99.4141 167.261 99.2552 167.105 99.0469 167.017C98.8385 166.923 98.5885 166.876 98.2969 166.876C97.974 166.876 97.6953 166.941 97.4609 167.071C97.2318 167.196 97.0417 167.371 96.8906 167.595C96.7448 167.819 96.6354 168.077 96.5625 168.368C96.4948 168.66 96.4609 168.975 96.4609 169.314ZM101.602 168.931L100.75 169.087C100.755 168.556 100.828 168.058 100.969 167.595C101.109 167.126 101.315 166.717 101.586 166.368C101.862 166.014 102.203 165.738 102.609 165.54C103.021 165.337 103.495 165.235 104.031 165.235C104.448 165.235 104.823 165.295 105.156 165.415C105.495 165.53 105.784 165.715 106.023 165.97C106.263 166.22 106.445 166.545 106.57 166.946C106.701 167.347 106.766 167.837 106.766 168.415V173.845H104.688V168.407C104.688 167.996 104.63 167.681 104.516 167.462C104.406 167.243 104.247 167.092 104.039 167.009C103.831 166.92 103.586 166.876 103.305 166.876C103.018 166.876 102.768 166.931 102.555 167.04C102.346 167.144 102.169 167.29 102.023 167.478C101.883 167.665 101.776 167.884 101.703 168.134C101.635 168.379 101.602 168.644 101.602 168.931ZM112.414 174.001C111.773 174.001 111.198 173.897 110.688 173.689C110.177 173.48 109.742 173.191 109.383 172.821C109.029 172.446 108.755 172.011 108.562 171.517C108.375 171.017 108.281 170.48 108.281 169.907V169.595C108.281 168.944 108.375 168.353 108.562 167.821C108.75 167.285 109.016 166.824 109.359 166.439C109.703 166.053 110.115 165.756 110.594 165.548C111.073 165.34 111.602 165.235 112.18 165.235C112.779 165.235 113.307 165.337 113.766 165.54C114.224 165.738 114.607 166.019 114.914 166.384C115.221 166.748 115.453 167.186 115.609 167.696C115.766 168.202 115.844 168.761 115.844 169.376V170.243H109.219V168.821H113.812V168.665C113.802 168.337 113.74 168.037 113.625 167.767C113.51 167.491 113.333 167.272 113.094 167.11C112.854 166.944 112.544 166.86 112.164 166.86C111.857 166.86 111.589 166.928 111.359 167.064C111.135 167.194 110.948 167.381 110.797 167.626C110.651 167.866 110.542 168.152 110.469 168.485C110.396 168.819 110.359 169.189 110.359 169.595V169.907C110.359 170.261 110.406 170.59 110.5 170.892C110.599 171.194 110.742 171.457 110.93 171.681C111.122 171.899 111.352 172.071 111.617 172.196C111.888 172.316 112.195 172.376 112.539 172.376C112.971 172.376 113.362 172.293 113.711 172.126C114.065 171.954 114.372 171.702 114.633 171.368L115.672 172.446C115.495 172.707 115.255 172.957 114.953 173.196C114.656 173.436 114.297 173.631 113.875 173.782C113.453 173.928 112.966 174.001 112.414 174.001ZM119.25 167.196V173.845H117.188V165.392H119.125L119.25 167.196ZM118.922 169.314H118.312C118.318 168.699 118.401 168.142 118.562 167.642C118.724 167.142 118.951 166.712 119.242 166.353C119.539 165.993 119.891 165.717 120.297 165.524C120.703 165.332 121.156 165.235 121.656 165.235C122.062 165.235 122.43 165.293 122.758 165.407C123.086 165.522 123.367 165.704 123.602 165.954C123.841 166.204 124.023 166.532 124.148 166.939C124.279 167.34 124.344 167.834 124.344 168.423V173.845H122.266V168.407C122.266 168.022 122.208 167.717 122.094 167.493C121.984 167.269 121.823 167.11 121.609 167.017C121.401 166.923 121.143 166.876 120.836 166.876C120.518 166.876 120.24 166.941 120 167.071C119.766 167.196 119.568 167.371 119.406 167.595C119.25 167.819 119.13 168.077 119.047 168.368C118.964 168.66 118.922 168.975 118.922 169.314ZM130.164 165.392V166.876H125.32V165.392H130.164ZM126.617 163.314H128.688V171.407C128.688 171.657 128.721 171.85 128.789 171.985C128.857 172.121 128.958 172.212 129.094 172.259C129.229 172.306 129.391 172.329 129.578 172.329C129.714 172.329 129.839 172.321 129.953 172.306C130.068 172.29 130.164 172.274 130.242 172.259L130.25 173.806C130.078 173.863 129.883 173.91 129.664 173.946C129.451 173.983 129.208 174.001 128.938 174.001C128.474 174.001 128.068 173.923 127.719 173.767C127.37 173.605 127.099 173.347 126.906 172.993C126.714 172.634 126.617 172.16 126.617 171.571V163.314Z" fill="black"/>
</svg>
