<svg xmlns="http://www.w3.org/2000/svg" xmlns:xlink="http://www.w3.org/1999/xlink" width="500" zoomAndPan="magnify" viewBox="0 0 375 374.999991" height="500" preserveAspectRatio="xMidYMid meet" version="1.0"><path fill="#ffffff" d="M 187.5 0.9375 C 83.945312 0.9375 0 84.882812 0 188.4375 C 0 282.429688 69.242188 360.054688 159.46875 373.613281 L 159.46875 238.125 L 113.082031 238.125 L 113.082031 188.832031 L 159.46875 188.832031 L 159.46875 156.039062 C 159.46875 101.738281 185.925781 77.90625 231.054688 77.90625 C 252.675781 77.90625 264.09375 79.5 269.511719 80.230469 L 269.511719 123.242188 L 238.726562 123.242188 C 219.5625 123.242188 212.867188 141.414062 212.867188 161.886719 L 212.867188 188.832031 L 269.023438 188.832031 L 261.414062 238.125 L 212.886719 238.125 L 212.886719 374.007812 C 304.40625 361.613281 375 283.351562 375 188.4375 C 375 84.882812 291.054688 0.9375 187.5 0.9375 Z M 187.5 0.9375 " fill-opacity="1" fill-rule="nonzero"/></svg>