<svg xmlns="http://www.w3.org/2000/svg" xmlns:xlink="http://www.w3.org/1999/xlink" width="500" zoomAndPan="magnify" viewBox="0 0 375 374.999991" height="500" preserveAspectRatio="xMidYMid meet" version="1.0"><defs><clipPath id="f7145cdfff"><path d="M 22.96875 232 L 143 232 L 143 351.9375 L 22.96875 351.9375 Z M 22.96875 232 " clip-rule="nonzero"/></clipPath></defs><g clip-path="url(#f7145cdfff)"><path fill="#5c948a" d="M 119.265625 237.257812 C 113.160156 231.179688 103.335938 231.179688 97.597656 237.257812 L 27.527344 307.328125 C 21.449219 313.4375 21.449219 323.230469 27.527344 328.996094 L 46.15625 347.597656 C 49.195312 350.664062 52.910156 352.015625 56.992188 352.015625 C 61.042969 352.015625 65.125 350.328125 67.824219 347.597656 L 137.894531 277.558594 C 143.972656 271.449219 143.972656 261.628906 137.894531 255.886719 L 119.265625 237.257812 " fill-opacity="1" fill-rule="nonzero"/></g><path fill="#5c948a" d="M 289.515625 214.269531 C 272.238281 231.519531 249.582031 241.003906 225.214844 241.003906 C 200.84375 241.003906 178.164062 231.519531 160.886719 214.269531 C 125.34375 178.726562 125.34375 121.179688 160.886719 85.976562 C 196.425781 50.433594 254.3125 50.433594 289.515625 85.640625 C 325.054688 121.179688 325.054688 178.726562 289.515625 214.242188 Z M 306.425781 69.0625 C 261.769531 24.039062 188.96875 24.039062 144.308594 69.0625 C 104.378906 108.996094 99.625 172.621094 132.800781 217.984375 L 129.085938 221.699219 C 125.679688 225.074219 125.679688 230.84375 129.085938 234.21875 L 141.269531 246.40625 C 144.648438 249.78125 150.417969 249.78125 153.792969 246.40625 L 157.507812 242.691406 C 177.488281 257.578125 201.492188 264.695312 225.214844 264.695312 C 254.648438 264.695312 284.421875 253.523438 306.425781 231.179688 C 351.113281 186.15625 351.113281 113.722656 306.425781 69.0625 " fill-opacity="1" fill-rule="nonzero"/></svg>