<svg xmlns="http://www.w3.org/2000/svg" xmlns:xlink="http://www.w3.org/1999/xlink" width="500" zoomAndPan="magnify" viewBox="0 0 375 374.999991" height="500" preserveAspectRatio="xMidYMid meet" version="1.0"><path fill="#db4a39" d="M 20.722656 -50.828125 L 354.621094 -50.828125 C 355.792969 -50.828125 356.964844 -50.796875 358.132812 -50.742188 C 359.304688 -50.683594 360.46875 -50.597656 361.636719 -50.484375 C 362.800781 -50.367188 363.960938 -50.226562 365.121094 -50.054688 C 366.28125 -49.882812 367.433594 -49.679688 368.582031 -49.453125 C 369.730469 -49.222656 370.871094 -48.96875 372.007812 -48.683594 C 373.144531 -48.398438 374.273438 -48.085938 375.390625 -47.746094 C 376.511719 -47.40625 377.625 -47.039062 378.726562 -46.644531 C 379.828125 -46.25 380.921875 -45.828125 382.003906 -45.382812 C 383.085938 -44.933594 384.15625 -44.457031 385.214844 -43.957031 C 386.273438 -43.457031 387.316406 -42.929688 388.351562 -42.378906 C 389.382812 -41.828125 390.402344 -41.25 391.40625 -40.648438 C 392.410156 -40.046875 393.398438 -39.417969 394.375 -38.769531 C 395.347656 -38.117188 396.304688 -37.445312 397.246094 -36.746094 C 398.183594 -36.050781 399.109375 -35.328125 400.011719 -34.585938 C 400.917969 -33.84375 401.804688 -33.078125 402.671875 -32.292969 C 403.539062 -31.507812 404.386719 -30.699219 405.214844 -29.871094 C 406.042969 -29.042969 406.851562 -28.195312 407.636719 -27.328125 C 408.421875 -26.460938 409.1875 -25.574219 409.929688 -24.667969 C 410.675781 -23.761719 411.394531 -22.839844 412.09375 -21.898438 C 412.789062 -20.960938 413.464844 -20.003906 414.113281 -19.027344 C 414.765625 -18.054688 415.390625 -17.066406 415.992188 -16.0625 C 416.59375 -15.058594 417.171875 -14.039062 417.722656 -13.007812 C 418.277344 -11.972656 418.800781 -10.925781 419.304688 -9.867188 C 419.804688 -8.8125 420.277344 -7.742188 420.726562 -6.660156 C 421.175781 -5.578125 421.59375 -4.484375 421.988281 -3.382812 C 422.382812 -2.28125 422.75 -1.167969 423.089844 -0.046875 C 423.429688 1.074219 423.742188 2.203125 424.027344 3.335938 C 424.3125 4.472656 424.570312 5.617188 424.796875 6.765625 C 425.027344 7.914062 425.226562 9.066406 425.398438 10.222656 C 425.570312 11.382812 425.714844 12.542969 425.828125 13.710938 C 425.941406 14.875 426.027344 16.042969 426.085938 17.210938 C 426.144531 18.382812 426.171875 19.550781 426.171875 20.722656 L 426.171875 354.621094 C 426.171875 355.792969 426.144531 356.964844 426.085938 358.132812 C 426.027344 359.304688 425.941406 360.46875 425.828125 361.636719 C 425.714844 362.800781 425.570312 363.960938 425.398438 365.121094 C 425.226562 366.28125 425.027344 367.433594 424.796875 368.582031 C 424.570312 369.730469 424.3125 370.871094 424.027344 372.007812 C 423.742188 373.144531 423.429688 374.273438 423.089844 375.390625 C 422.75 376.511719 422.382812 377.625 421.988281 378.726562 C 421.59375 379.828125 421.175781 380.921875 420.726562 382.003906 C 420.277344 383.085938 419.804688 384.15625 419.304688 385.214844 C 418.800781 386.273438 418.277344 387.316406 417.722656 388.351562 C 417.171875 389.382812 416.59375 390.402344 415.992188 391.40625 C 415.390625 392.410156 414.765625 393.398438 414.113281 394.375 C 413.464844 395.347656 412.789062 396.304688 412.09375 397.246094 C 411.394531 398.183594 410.675781 399.109375 409.929688 400.011719 C 409.1875 400.917969 408.421875 401.804688 407.636719 402.671875 C 406.851562 403.539062 406.042969 404.386719 405.214844 405.214844 C 404.386719 406.042969 403.539062 406.851562 402.671875 407.636719 C 401.804688 408.421875 400.917969 409.1875 400.011719 409.929688 C 399.109375 410.675781 398.183594 411.394531 397.246094 412.09375 C 396.304688 412.789062 395.347656 413.464844 394.375 414.113281 C 393.398438 414.765625 392.410156 415.390625 391.40625 415.992188 C 390.402344 416.59375 389.382812 417.171875 388.351562 417.722656 C 387.316406 418.277344 386.273438 418.800781 385.214844 419.304688 C 384.15625 419.804688 383.085938 420.277344 382.003906 420.726562 C 380.921875 421.175781 379.828125 421.59375 378.726562 421.988281 C 377.625 422.382812 376.511719 422.75 375.390625 423.089844 C 374.273438 423.429688 373.144531 423.742188 372.007812 424.027344 C 370.871094 424.3125 369.730469 424.570312 368.582031 424.796875 C 367.433594 425.027344 366.28125 425.226562 365.121094 425.398438 C 363.960938 425.570312 362.800781 425.714844 361.636719 425.828125 C 360.46875 425.941406 359.304688 426.027344 358.132812 426.085938 C 356.964844 426.144531 355.792969 426.171875 354.621094 426.171875 L 20.722656 426.171875 C 19.550781 426.171875 18.382812 426.144531 17.210938 426.085938 C 16.042969 426.027344 14.875 425.941406 13.710938 425.828125 C 12.542969 425.714844 11.382812 425.570312 10.222656 425.398438 C 9.066406 425.226562 7.914062 425.027344 6.765625 424.796875 C 5.617188 424.570312 4.472656 424.3125 3.335938 424.027344 C 2.203125 423.742188 1.074219 423.429688 -0.046875 423.089844 C -1.167969 422.75 -2.28125 422.382812 -3.382812 421.988281 C -4.484375 421.59375 -5.578125 421.175781 -6.660156 420.726562 C -7.742188 420.277344 -8.8125 419.804688 -9.867188 419.304688 C -10.925781 418.800781 -11.972656 418.277344 -13.007812 417.722656 C -14.039062 417.171875 -15.058594 416.59375 -16.0625 415.992188 C -17.066406 415.390625 -18.054688 414.765625 -19.027344 414.113281 C -20.003906 413.464844 -20.960938 412.789062 -21.898438 412.09375 C -22.839844 411.394531 -23.761719 410.675781 -24.667969 409.929688 C -25.574219 409.1875 -26.460938 408.421875 -27.328125 407.636719 C -28.195312 406.851562 -29.042969 406.042969 -29.871094 405.214844 C -30.699219 404.386719 -31.507812 403.539062 -32.292969 402.671875 C -33.078125 401.804688 -33.84375 400.917969 -34.585938 400.011719 C -35.328125 399.109375 -36.050781 398.183594 -36.746094 397.246094 C -37.445312 396.304688 -38.117188 395.347656 -38.769531 394.375 C -39.417969 393.398438 -40.046875 392.410156 -40.648438 391.40625 C -41.25 390.402344 -41.828125 389.382812 -42.378906 388.351562 C -42.929688 387.316406 -43.457031 386.273438 -43.957031 385.214844 C -44.457031 384.15625 -44.933594 383.085938 -45.382812 382.003906 C -45.828125 380.921875 -46.25 379.828125 -46.644531 378.726562 C -47.039062 377.625 -47.40625 376.511719 -47.746094 375.390625 C -48.085938 374.273438 -48.398438 373.144531 -48.683594 372.007812 C -48.96875 370.871094 -49.222656 369.730469 -49.453125 368.582031 C -49.679688 367.433594 -49.882812 366.28125 -50.054688 365.121094 C -50.226562 363.960938 -50.367188 362.800781 -50.484375 361.636719 C -50.597656 360.46875 -50.683594 359.304688 -50.742188 358.132812 C -50.796875 356.964844 -50.828125 355.792969 -50.828125 354.621094 L -50.828125 20.722656 C -50.828125 19.550781 -50.796875 18.382812 -50.742188 17.210938 C -50.683594 16.042969 -50.597656 14.875 -50.484375 13.710938 C -50.367188 12.542969 -50.226562 11.382812 -50.054688 10.222656 C -49.882812 9.066406 -49.679688 7.914062 -49.453125 6.765625 C -49.222656 5.617188 -48.96875 4.472656 -48.683594 3.335938 C -48.398438 2.203125 -48.085938 1.074219 -47.746094 -0.046875 C -47.40625 -1.167969 -47.039062 -2.28125 -46.644531 -3.382812 C -46.25 -4.484375 -45.828125 -5.578125 -45.382812 -6.660156 C -44.933594 -7.742188 -44.457031 -8.8125 -43.957031 -9.867188 C -43.457031 -10.925781 -42.929688 -11.972656 -42.378906 -13.007812 C -41.828125 -14.039062 -41.25 -15.058594 -40.648438 -16.0625 C -40.046875 -17.066406 -39.417969 -18.054688 -38.769531 -19.027344 C -38.117188 -20.003906 -37.445312 -20.960938 -36.746094 -21.898438 C -36.050781 -22.839844 -35.328125 -23.761719 -34.585938 -24.667969 C -33.84375 -25.574219 -33.078125 -26.460938 -32.292969 -27.328125 C -31.507812 -28.195312 -30.699219 -29.042969 -29.871094 -29.871094 C -29.042969 -30.699219 -28.195312 -31.507812 -27.328125 -32.292969 C -26.460938 -33.078125 -25.574219 -33.84375 -24.667969 -34.585938 C -23.761719 -35.328125 -22.839844 -36.050781 -21.898438 -36.746094 C -20.960938 -37.445312 -20.003906 -38.117188 -19.027344 -38.769531 C -18.054688 -39.417969 -17.066406 -40.046875 -16.0625 -40.648438 C -15.058594 -41.25 -14.039062 -41.828125 -13.007812 -42.378906 C -11.972656 -42.929688 -10.925781 -43.457031 -9.867188 -43.957031 C -8.8125 -44.457031 -7.742188 -44.933594 -6.660156 -45.382812 C -5.578125 -45.828125 -4.484375 -46.25 -3.382812 -46.644531 C -2.28125 -47.039062 -1.167969 -47.40625 -0.046875 -47.746094 C 1.074219 -48.085938 2.203125 -48.398438 3.335938 -48.683594 C 4.472656 -48.96875 5.617188 -49.222656 6.765625 -49.453125 C 7.914062 -49.679688 9.066406 -49.882812 10.222656 -50.054688 C 11.382812 -50.226562 12.542969 -50.367188 13.710938 -50.484375 C 14.875 -50.597656 16.042969 -50.683594 17.210938 -50.742188 C 18.382812 -50.796875 19.550781 -50.828125 20.722656 -50.828125 Z M 20.722656 -50.828125 " fill-opacity="1" fill-rule="nonzero"/><path fill="#ffffff" d="M 1.34375 188.605469 C 1.253906 185.726562 1.269531 182.847656 1.390625 179.96875 C 1.511719 177.09375 1.738281 174.222656 2.070312 171.363281 C 2.402344 168.5 2.839844 165.65625 3.378906 162.828125 C 3.921875 160 4.566406 157.195312 5.316406 154.414062 C 6.0625 151.632812 6.914062 148.882812 7.863281 146.164062 C 8.8125 143.445312 9.863281 140.765625 11.011719 138.125 C 12.15625 135.484375 13.402344 132.886719 14.738281 130.335938 C 16.078125 127.785156 17.507812 125.289062 19.03125 122.84375 C 20.554688 120.402344 22.164062 118.015625 23.863281 115.6875 C 25.5625 113.363281 27.34375 111.101562 29.207031 108.90625 C 31.070312 106.710938 33.015625 104.589844 35.035156 102.535156 C 37.054688 100.484375 39.148438 98.511719 41.316406 96.613281 C 43.480469 94.714844 45.714844 92.898438 48.015625 91.164062 C 50.3125 89.429688 52.675781 87.785156 55.09375 86.226562 C 57.515625 84.664062 59.992188 83.195312 62.519531 81.820312 C 65.050781 80.441406 67.625 79.15625 70.25 77.96875 C 72.875 76.78125 75.535156 75.691406 78.242188 74.699219 C 80.945312 73.707031 83.679688 72.816406 86.449219 72.027344 C 89.21875 71.234375 92.015625 70.546875 94.835938 69.964844 C 97.65625 69.378906 100.492188 68.898438 103.347656 68.523438 C 106.203125 68.144531 109.070312 67.875 111.945312 67.710938 C 114.820312 67.546875 117.695312 67.484375 120.574219 67.53125 C 123.457031 67.578125 126.328125 67.730469 129.199219 67.988281 C 132.066406 68.25 134.921875 68.613281 137.761719 69.078125 C 140.605469 69.546875 143.425781 70.121094 146.226562 70.796875 C 149.023438 71.472656 151.796875 72.25 154.539062 73.128906 C 157.28125 74.011719 159.984375 74.988281 162.65625 76.070312 C 165.328125 77.148438 167.953125 78.324219 170.539062 79.597656 C 173.121094 80.867188 175.652344 82.234375 178.136719 83.691406 C 180.621094 85.152344 183.046875 86.699219 185.414062 88.339844 C 187.785156 89.976562 190.089844 91.699219 192.332031 93.503906 C 194.574219 95.3125 196.75 97.199219 198.851562 99.167969 L 168.109375 129.910156 C 148.542969 117.800781 122.457031 107.550781 98.234375 116.867188 C 97.082031 117.28125 95.945312 117.71875 94.8125 118.1875 C 93.683594 118.65625 92.566406 119.148438 91.460938 119.671875 C 90.355469 120.195312 89.265625 120.742188 88.1875 121.320312 C 87.109375 121.894531 86.042969 122.5 84.996094 123.125 C 83.945312 123.753906 82.914062 124.410156 81.898438 125.085938 C 80.882812 125.765625 79.882812 126.46875 78.898438 127.199219 C 77.917969 127.925781 76.953125 128.679688 76.007812 129.453125 C 75.0625 130.230469 74.136719 131.027344 73.230469 131.847656 C 72.328125 132.667969 71.441406 133.511719 70.578125 134.375 C 69.710938 135.238281 68.867188 136.125 68.046875 137.03125 C 67.226562 137.9375 66.429688 138.863281 65.652344 139.808594 C 64.875 140.75 64.125 141.714844 63.394531 142.695312 C 62.667969 143.679688 61.964844 144.679688 61.285156 145.695312 C 60.605469 146.710938 59.949219 147.742188 59.320312 148.792969 C 58.695312 149.839844 58.089844 150.902344 57.515625 151.980469 C 56.9375 153.058594 56.386719 154.152344 55.867188 155.257812 C 55.34375 156.363281 54.847656 157.480469 54.378906 158.609375 C 53.910156 159.738281 53.472656 160.878906 53.058594 162.027344 C 52.648438 163.179688 52.261719 164.339844 51.90625 165.511719 C 51.554688 166.679688 51.226562 167.859375 50.929688 169.042969 C 50.632812 170.230469 50.363281 171.421875 50.125 172.621094 C 49.886719 173.820312 49.679688 175.023438 49.5 176.234375 C 49.320312 177.441406 49.167969 178.65625 49.050781 179.871094 C 48.929688 181.089844 48.839844 182.308594 48.777344 183.527344 C 48.71875 184.75 48.6875 185.972656 48.6875 187.195312 C 48.6875 188.417969 48.71875 189.636719 48.777344 190.859375 C 48.835938 192.082031 48.925781 193.300781 49.046875 194.515625 C 49.164062 195.734375 49.316406 196.945312 49.496094 198.15625 C 49.671875 199.363281 49.882812 200.570312 50.121094 201.769531 C 50.359375 202.96875 50.625 204.160156 50.921875 205.34375 C 51.21875 206.53125 51.546875 207.710938 51.902344 208.878906 C 52.253906 210.050781 52.640625 211.210938 53.050781 212.359375 C 53.460938 213.511719 53.902344 214.652344 54.371094 215.78125 C 54.835938 216.910156 55.332031 218.027344 55.855469 219.132812 C 56.378906 220.238281 56.925781 221.332031 57.503906 222.410156 C 58.078125 223.488281 58.679688 224.550781 59.308594 225.601562 C 59.9375 226.648438 60.589844 227.679688 61.269531 228.699219 C 61.949219 229.714844 62.652344 230.714844 63.382812 231.695312 C 64.109375 232.679688 64.859375 233.640625 65.636719 234.585938 C 66.410156 235.53125 67.210938 236.457031 68.03125 237.363281 C 68.851562 238.269531 69.695312 239.15625 70.558594 240.019531 C 71.421875 240.882812 72.308594 241.726562 73.214844 242.546875 C 74.121094 243.371094 75.042969 244.167969 75.988281 244.945312 C 76.933594 245.71875 77.898438 246.472656 78.878906 247.199219 C 79.863281 247.929688 80.859375 248.632812 81.878906 249.3125 C 82.894531 249.992188 83.925781 250.644531 84.972656 251.273438 C 86.023438 251.902344 87.085938 252.503906 88.164062 253.082031 C 89.242188 253.65625 90.332031 254.207031 91.4375 254.730469 C 92.542969 255.253906 93.660156 255.75 94.789062 256.21875 C 95.921875 256.683594 97.058594 257.125 98.210938 257.535156 C 99.363281 257.949219 100.523438 258.332031 101.691406 258.6875 C 102.863281 259.042969 104.039062 259.367188 105.226562 259.667969 C 106.410156 259.964844 107.605469 260.230469 108.804688 260.46875 C 110.003906 260.707031 111.207031 260.917969 112.414062 261.097656 C 113.625 261.277344 114.839844 261.425781 116.054688 261.546875 C 117.269531 261.667969 118.492188 261.757812 119.710938 261.816406 C 120.933594 261.878906 122.152344 261.90625 123.375 261.90625 C 124.597656 261.90625 125.820312 261.878906 127.042969 261.820312 C 128.261719 261.757812 129.480469 261.667969 130.699219 261.550781 C 131.914062 261.429688 133.128906 261.28125 134.335938 261.101562 C 135.546875 260.921875 136.75 260.714844 137.949219 260.476562 C 139.148438 260.238281 140.34375 259.96875 141.527344 259.671875 C 142.714844 259.375 143.890625 259.050781 145.0625 258.695312 C 146.230469 258.339844 147.390625 257.957031 148.542969 257.546875 C 168.109375 250.09375 181.152344 231.460938 186.742188 212.828125 L 119.664062 211.894531 L 119.664062 170.902344 L 233.324219 170.902344 C 234.253906 204.441406 230.527344 239.84375 208.167969 265.929688 C 206.199219 268.148438 204.152344 270.292969 202.019531 272.355469 C 199.890625 274.421875 197.6875 276.402344 195.40625 278.304688 C 193.128906 280.203125 190.78125 282.015625 188.367188 283.738281 C 185.953125 285.460938 183.476562 287.089844 180.9375 288.625 C 178.398438 290.164062 175.808594 291.601562 173.160156 292.941406 C 170.515625 294.285156 167.824219 295.523438 165.085938 296.664062 C 162.34375 297.800781 159.566406 298.835938 156.75 299.765625 C 153.933594 300.699219 151.085938 301.519531 148.207031 302.234375 C 145.328125 302.953125 142.425781 303.558594 139.5 304.054688 C 136.574219 304.554688 133.636719 304.941406 130.683594 305.21875 C 127.730469 305.492188 124.769531 305.660156 121.804688 305.710938 C 118.835938 305.765625 115.871094 305.707031 112.910156 305.539062 C 109.949219 305.371094 106.996094 305.089844 104.058594 304.699219 C 101.117188 304.308594 98.195312 303.808594 95.292969 303.195312 C 92.386719 302.585938 89.511719 301.867188 86.664062 301.039062 C 83.8125 300.210938 81 299.277344 78.222656 298.238281 C 75.441406 297.199219 72.707031 296.058594 70.015625 294.8125 C 67.320312 293.570312 64.679688 292.226562 62.085938 290.78125 C 59.496094 289.339844 56.960938 287.800781 54.484375 286.164062 C 52.007812 284.53125 49.597656 282.808594 47.253906 280.992188 C 44.90625 279.175781 42.632812 277.273438 40.425781 275.289062 C 38.222656 273.300781 36.097656 271.234375 34.050781 269.089844 C 32.003906 266.941406 30.039062 264.722656 28.15625 262.429688 C 26.277344 260.132812 24.484375 257.773438 22.78125 255.34375 C 21.078125 252.914062 19.46875 250.425781 17.953125 247.875 C 16.4375 245.324219 15.019531 242.722656 13.699219 240.066406 C 12.378906 237.40625 11.160156 234.707031 10.042969 231.957031 C 8.925781 229.207031 7.914062 226.421875 7.007812 223.597656 C 6.101562 220.773438 5.300781 217.917969 4.605469 215.035156 C 3.914062 212.148438 3.332031 209.242188 2.859375 206.3125 C 2.382812 203.386719 2.019531 200.445312 1.769531 197.488281 C 1.515625 194.53125 1.375 191.570312 1.34375 188.605469 Z M 305.992188 136.433594 L 339.53125 136.433594 L 340.460938 170.902344 L 374 170.902344 L 374 205.375 L 340.460938 205.375 L 339.53125 238.914062 L 305.992188 238.914062 L 305.992188 205.375 L 271.519531 205.375 L 271.519531 170.902344 L 305.992188 170.902344 Z M 305.992188 136.433594 " fill-opacity="1" fill-rule="nonzero"/></svg>