<svg xmlns="http://www.w3.org/2000/svg" xmlns:xlink="http://www.w3.org/1999/xlink" width="250" zoomAndPan="magnify" viewBox="0 0 187.5 149.999998" height="200" preserveAspectRatio="xMidYMid meet" version="1.0"><defs><clipPath id="6734db0341"><path d="M 0 7.527344 L 187 7.527344 L 187 76 L 0 76 Z M 0 7.527344 " clip-rule="nonzero"/></clipPath><clipPath id="96e0a3703a"><path d="M 0 75 L 187 75 L 187 142.527344 L 0 142.527344 Z M 0 75 " clip-rule="nonzero"/></clipPath></defs><g clip-path="url(#6734db0341)"><path fill="#dc1f26" d="M 166.625 7.527344 L 20.875 7.527344 C 9.375 7.527344 0.0546875 16.828125 0.0546875 28.296875 L 0.0546875 75.027344 L 187.445312 75.027344 L 187.445312 28.296875 C 187.445312 16.828125 178.125 7.527344 166.625 7.527344 Z M 166.625 7.527344 " fill-opacity="1" fill-rule="nonzero"/></g><g clip-path="url(#96e0a3703a)"><path fill="#eeeeee" d="M 187.445312 121.761719 C 187.445312 133.230469 178.125 142.527344 166.625 142.527344 L 20.875 142.527344 C 9.375 142.527344 0.0546875 133.230469 0.0546875 121.761719 L 0.0546875 75.027344 L 187.445312 75.027344 Z M 187.445312 121.761719 " fill-opacity="1" fill-rule="nonzero"/></g></svg>