<svg width="56" height="56" viewBox="0 0 56 56" fill="none" xmlns="http://www.w3.org/2000/svg">
<circle cx="28" cy="28" r="28" fill="#5C948A"/>
<path fill-rule="evenodd" clip-rule="evenodd" d="M24.9828 12.6H25.2786C25.2823 12.6 25.2861 12.6 25.2899 12.6H31.0172L45.5 37.9784L43.0862 42.7H13.2155L10.5 37.9784L24.9828 12.6ZM36.5346 32.9618L25.2235 13.3892L23.2657 16.8199L25.9617 21.5832L25.9901 21.5991L25.9803 21.616L32.402 32.9618H36.5346ZM37.3117 33.107C37.3382 33.151 37.3534 33.2022 37.3534 33.2569C37.3534 33.4198 37.2184 33.552 37.0517 33.552H24.0948L21.7139 37.6833H44.6405L30.663 13.1902H25.8016L37.3117 33.107ZM24.4349 32.9618H31.7122L28.1064 26.591L24.4349 32.9618ZM19.163 42.1098L21.3738 38.2735H44.6745L42.7133 42.1098H19.163ZM27.7655 25.9887C27.7551 26.0014 27.7456 26.015 27.7372 26.0296L18.4703 42.1098H14.0365L25.6304 22.2164L27.7655 25.9887ZM25.2881 21.6118L13.4559 41.9142L11.1917 37.9773L22.9194 17.4267L25.2881 21.6118Z" fill="white"/>
</svg>
