<svg width="35" height="31" viewBox="0 0 35 31" fill="none" xmlns="http://www.w3.org/2000/svg">
<path fill-rule="evenodd" clip-rule="evenodd" d="M14.8609 5.17869e-05H15.1502C15.1539 -1.73529e-05 15.1576 -1.71716e-05 15.1612 5.17869e-05H20.7626L34.9267 25.3784L32.566 30.1H3.3526L0.696838 25.3784L14.8609 5.17869e-05ZM26.1585 20.3618L15.0963 0.789267L13.1816 4.21994L15.8183 8.98326L15.8461 8.99911L15.8365 9.01605L22.1169 20.3618H26.1585ZM26.9186 20.5071C26.9445 20.551 26.9594 20.6022 26.9594 20.6569C26.9594 20.8199 26.8273 20.952 26.6643 20.952H13.9925L11.664 25.0833H34.0861L20.4161 0.590247H15.6617L26.9186 20.5071ZM14.3251 20.3618H21.4423L17.9158 13.991L14.3251 20.3618ZM9.16918 29.5098L11.3313 25.6735H34.1193L32.2012 29.5098H9.16918ZM17.5824 13.3888C17.5722 13.4014 17.5629 13.415 17.5547 13.4296L8.49172 29.5098H4.15554L15.4943 9.61645L17.5824 13.3888ZM15.1596 9.01183L3.58773 29.3142L1.37334 25.3773L12.8429 4.82674L15.1596 9.01183Z" fill="white"/>
</svg>
