<svg xmlns="http://www.w3.org/2000/svg" xmlns:xlink="http://www.w3.org/1999/xlink" width="500" zoomAndPan="magnify" viewBox="0 0 375 374.999991" height="500" preserveAspectRatio="xMidYMid meet" version="1.0"><path fill="#5c948a" d="M 111.449219 317.074219 L 127.394531 317.074219 C 127.515625 318.9375 127.722656 320.792969 128.019531 322.640625 C 128.3125 324.488281 128.695312 326.316406 129.164062 328.125 C 129.628906 329.933594 130.183594 331.71875 130.820312 333.476562 C 131.453125 335.234375 132.171875 336.960938 132.972656 338.652344 C 133.769531 340.34375 134.648438 341.992188 135.601562 343.601562 C 136.558594 345.207031 137.585938 346.769531 138.6875 348.28125 C 139.789062 349.792969 140.960938 351.246094 142.203125 352.648438 C 143.441406 354.050781 144.746094 355.390625 146.109375 356.667969 C 147.476562 357.949219 148.902344 359.160156 150.382812 360.304688 C 151.863281 361.449219 153.394531 362.523438 154.976562 363.523438 C 156.558594 364.527344 158.183594 365.449219 159.851562 366.296875 C 161.523438 367.144531 163.226562 367.914062 164.96875 368.601562 C 166.710938 369.289062 168.480469 369.894531 170.28125 370.414062 C 172.078125 370.9375 173.898438 371.371094 175.738281 371.722656 C 177.578125 372.070312 179.433594 372.335938 181.296875 372.511719 C 183.160156 372.6875 185.03125 372.773438 186.902344 372.773438 C 188.777344 372.773438 190.648438 372.6875 192.511719 372.511719 C 194.375 372.335938 196.230469 372.070312 198.070312 371.722656 C 199.910156 371.371094 201.730469 370.9375 203.527344 370.414062 C 205.328125 369.894531 207.097656 369.289062 208.839844 368.601562 C 210.582031 367.914062 212.285156 367.144531 213.957031 366.296875 C 215.625 365.449219 217.25 364.527344 218.832031 363.523438 C 220.414062 362.523438 221.945312 361.449219 223.425781 360.304688 C 224.90625 359.160156 226.332031 357.949219 227.699219 356.667969 C 229.0625 355.390625 230.367188 354.050781 231.605469 352.648438 C 232.847656 351.246094 234.019531 349.792969 235.121094 348.28125 C 236.222656 346.769531 237.25 345.207031 238.207031 343.601562 C 239.160156 341.992188 240.039062 340.34375 240.835938 338.652344 C 241.636719 336.960938 242.355469 335.234375 242.988281 333.476562 C 243.625 331.71875 244.179688 329.933594 244.644531 328.125 C 245.113281 326.316406 245.496094 324.488281 245.789062 322.640625 C 246.085938 320.792969 246.292969 318.9375 246.414062 317.074219 L 262.359375 317.074219 C 263.507812 317.074219 264.652344 317.042969 265.800781 316.976562 C 266.945312 316.910156 268.085938 316.8125 269.226562 316.683594 C 270.367188 316.550781 271.5 316.386719 272.628906 316.191406 C 273.761719 315.996094 274.882812 315.769531 276 315.507812 C 277.117188 315.246094 278.226562 314.957031 279.328125 314.632812 C 280.425781 314.308594 281.519531 313.953125 282.597656 313.566406 C 283.675781 313.179688 284.746094 312.761719 285.800781 312.316406 C 286.855469 311.867188 287.898438 311.390625 288.925781 310.882812 C 289.957031 310.375 290.96875 309.839844 291.964844 309.273438 C 292.964844 308.710938 293.945312 308.117188 294.90625 307.492188 C 295.871094 306.871094 296.816406 306.222656 297.742188 305.546875 C 298.667969 304.871094 299.574219 304.171875 300.457031 303.441406 C 301.34375 302.714844 302.207031 301.964844 303.050781 301.1875 C 303.890625 300.410156 304.710938 299.609375 305.507812 298.785156 C 306.304688 297.960938 307.074219 297.113281 307.824219 296.246094 C 308.570312 295.378906 309.292969 294.488281 309.988281 293.578125 C 310.683594 292.667969 311.355469 291.738281 311.996094 290.792969 C 312.640625 289.84375 313.253906 288.878906 313.84375 287.894531 C 314.429688 286.910156 314.988281 285.910156 315.519531 284.894531 C 316.046875 283.882812 316.546875 282.851562 317.019531 281.808594 C 317.488281 280.761719 317.929688 279.707031 318.339844 278.636719 C 318.746094 277.566406 319.125 276.488281 319.472656 275.398438 C 319.820312 274.304688 320.136719 273.207031 320.421875 272.097656 C 320.703125 270.988281 320.957031 269.871094 321.175781 268.746094 C 321.398438 267.625 321.585938 266.496094 321.738281 265.359375 C 321.894531 264.226562 322.015625 263.089844 322.105469 261.949219 C 322.195312 260.804688 322.25 259.664062 322.273438 258.519531 C 322.296875 257.375 322.289062 256.230469 322.246094 255.085938 C 322.203125 253.941406 322.128906 252.800781 322.023438 251.660156 C 321.914062 250.519531 321.773438 249.386719 321.601562 248.253906 C 321.425781 247.121094 321.222656 245.996094 320.984375 244.875 C 320.746094 243.757812 320.472656 242.644531 320.171875 241.539062 L 312.773438 214.457031 C 312.097656 211.957031 311.753906 209.414062 311.746094 206.824219 L 311.746094 162.269531 C 311.746094 160.445312 311.699219 158.625 311.617188 156.800781 C 311.535156 154.980469 311.410156 153.160156 311.246094 151.347656 C 311.085938 149.53125 310.882812 147.71875 310.636719 145.910156 C 310.394531 144.105469 310.113281 142.304688 309.789062 140.507812 C 309.46875 138.714844 309.105469 136.925781 308.707031 135.148438 C 308.304688 133.367188 307.867188 131.597656 307.386719 129.839844 C 306.910156 128.082031 306.390625 126.332031 305.835938 124.59375 C 305.28125 122.859375 304.6875 121.132812 304.058594 119.421875 C 303.425781 117.710938 302.757812 116.015625 302.050781 114.332031 C 301.347656 112.652344 300.605469 110.984375 299.824219 109.335938 C 299.046875 107.6875 298.230469 106.054688 297.382812 104.441406 C 296.53125 102.828125 295.644531 101.234375 294.722656 99.660156 C 293.804688 98.085938 292.847656 96.53125 291.859375 94.996094 C 290.871094 93.464844 289.847656 91.953125 288.792969 90.464844 C 287.738281 88.976562 286.648438 87.511719 285.53125 86.070312 C 284.410156 84.628906 283.257812 83.214844 282.078125 81.824219 C 280.894531 80.433594 279.683594 79.070312 278.441406 77.734375 C 277.199219 76.394531 275.929688 75.085938 274.628906 73.804688 C 273.328125 72.523438 272.003906 71.269531 270.648438 70.046875 C 269.292969 68.824219 267.910156 67.628906 266.503906 66.46875 C 265.097656 65.304688 263.664062 64.171875 262.210938 63.074219 C 260.753906 61.972656 259.273438 60.90625 257.769531 59.867188 C 256.265625 58.832031 254.738281 57.832031 253.191406 56.863281 C 251.644531 55.894531 250.074219 54.960938 248.484375 54.058594 C 246.898438 53.160156 245.289062 52.292969 243.660156 51.464844 C 242.035156 50.636719 240.390625 49.839844 238.730469 49.082031 C 237.066406 48.324219 235.390625 47.605469 233.695312 46.921875 C 232.003906 46.238281 230.292969 45.589844 228.574219 44.980469 C 226.851562 44.371094 225.117188 43.800781 223.371094 43.265625 C 221.621094 42.730469 219.863281 42.238281 218.09375 41.78125 C 216.328125 41.324219 214.546875 40.90625 212.761719 40.527344 C 210.972656 40.148438 209.179688 39.808594 207.378906 39.507812 C 207.558594 39.089844 207.730469 38.660156 207.886719 38.230469 C 208.042969 37.796875 208.183594 37.363281 208.3125 36.921875 C 208.445312 36.480469 208.558594 36.035156 208.660156 35.589844 C 208.761719 35.140625 208.851562 34.691406 208.925781 34.238281 C 208.996094 33.785156 209.058594 33.328125 209.101562 32.871094 C 209.148438 32.414062 209.179688 31.957031 209.195312 31.5 C 209.214844 31.039062 209.21875 30.582031 209.207031 30.121094 C 209.195312 29.664062 209.167969 29.203125 209.128906 28.746094 C 209.089844 28.289062 209.035156 27.832031 208.96875 27.378906 C 208.898438 26.925781 208.816406 26.472656 208.722656 26.023438 C 208.625 25.574219 208.515625 25.128906 208.394531 24.6875 C 208.269531 24.246094 208.132812 23.808594 207.980469 23.375 C 207.832031 22.941406 207.667969 22.511719 207.488281 22.085938 C 207.3125 21.664062 207.121094 21.246094 206.917969 20.835938 C 206.714844 20.421875 206.5 20.015625 206.269531 19.617188 C 206.042969 19.21875 205.800781 18.828125 205.550781 18.445312 C 205.296875 18.0625 205.03125 17.683594 204.757812 17.316406 C 204.480469 16.949219 204.195312 16.59375 203.894531 16.242188 C 203.597656 15.890625 203.289062 15.550781 202.96875 15.222656 C 202.652344 14.890625 202.320312 14.570312 201.984375 14.261719 C 201.644531 13.949219 201.296875 13.648438 200.9375 13.363281 C 200.578125 13.074219 200.214844 12.796875 199.839844 12.527344 C 199.464844 12.261719 199.082031 12.007812 198.691406 11.765625 C 198.300781 11.523438 197.902344 11.292969 197.496094 11.074219 C 197.09375 10.855469 196.679688 10.652344 196.265625 10.457031 C 195.847656 10.265625 195.421875 10.085938 194.992188 9.921875 C 194.566406 9.753906 194.132812 9.601562 193.695312 9.460938 C 193.253906 9.320312 192.8125 9.195312 192.367188 9.082031 C 191.921875 8.96875 191.472656 8.871094 191.019531 8.785156 C 190.566406 8.703125 190.113281 8.632812 189.65625 8.574219 C 189.199219 8.519531 188.742188 8.476562 188.28125 8.445312 C 187.824219 8.417969 187.363281 8.40625 186.902344 8.40625 C 186.445312 8.40625 185.984375 8.417969 185.523438 8.445312 C 185.066406 8.476562 184.609375 8.519531 184.152344 8.574219 C 183.695312 8.632812 183.242188 8.703125 182.789062 8.785156 C 182.335938 8.871094 181.886719 8.96875 181.441406 9.082031 C 180.996094 9.195312 180.554688 9.320312 180.113281 9.460938 C 179.675781 9.601562 179.242188 9.753906 178.8125 9.921875 C 178.386719 10.085938 177.960938 10.265625 177.542969 10.457031 C 177.128906 10.652344 176.714844 10.855469 176.3125 11.074219 C 175.90625 11.292969 175.507812 11.523438 175.117188 11.765625 C 174.726562 12.007812 174.34375 12.261719 173.96875 12.527344 C 173.59375 12.796875 173.230469 13.074219 172.871094 13.363281 C 172.511719 13.648438 172.164062 13.949219 171.824219 14.261719 C 171.488281 14.570312 171.15625 14.890625 170.839844 15.222656 C 170.519531 15.550781 170.210938 15.890625 169.914062 16.242188 C 169.613281 16.59375 169.328125 16.949219 169.050781 17.316406 C 168.777344 17.683594 168.511719 18.0625 168.257812 18.445312 C 168.007812 18.828125 167.765625 19.21875 167.539062 19.617188 C 167.308594 20.015625 167.09375 20.421875 166.890625 20.835938 C 166.6875 21.246094 166.496094 21.664062 166.320312 22.085938 C 166.140625 22.511719 165.976562 22.941406 165.828125 23.375 C 165.675781 23.808594 165.539062 24.246094 165.414062 24.6875 C 165.292969 25.128906 165.183594 25.574219 165.085938 26.023438 C 164.992188 26.472656 164.910156 26.925781 164.839844 27.378906 C 164.773438 27.832031 164.71875 28.289062 164.679688 28.746094 C 164.640625 29.203125 164.613281 29.664062 164.601562 30.121094 C 164.589844 30.582031 164.59375 31.039062 164.613281 31.5 C 164.628906 31.957031 164.660156 32.414062 164.707031 32.871094 C 164.75 33.328125 164.8125 33.785156 164.882812 34.238281 C 164.957031 34.691406 165.046875 35.140625 165.148438 35.589844 C 165.25 36.035156 165.363281 36.480469 165.496094 36.921875 C 165.625 37.363281 165.765625 37.796875 165.921875 38.230469 C 166.078125 38.660156 166.25 39.089844 166.429688 39.507812 C 164.628906 39.808594 162.835938 40.148438 161.046875 40.527344 C 159.257812 40.90625 157.480469 41.324219 155.714844 41.78125 C 153.945312 42.238281 152.1875 42.730469 150.4375 43.265625 C 148.691406 43.800781 146.957031 44.371094 145.234375 44.980469 C 143.511719 45.589844 141.804688 46.238281 140.113281 46.921875 C 138.417969 47.605469 136.742188 48.324219 135.078125 49.082031 C 133.417969 49.839844 131.773438 50.636719 130.144531 51.464844 C 128.519531 52.292969 126.910156 53.160156 125.324219 54.058594 C 123.734375 54.960938 122.164062 55.894531 120.617188 56.863281 C 119.070312 57.832031 117.542969 58.832031 116.039062 59.867188 C 114.535156 60.90625 113.054688 61.972656 111.597656 63.074219 C 110.140625 64.171875 108.710938 65.304688 107.304688 66.46875 C 105.894531 67.628906 104.515625 68.824219 103.160156 70.046875 C 101.804688 71.269531 100.480469 72.523438 99.179688 73.804688 C 97.878906 75.085938 96.609375 76.394531 95.367188 77.734375 C 94.125 79.070312 92.914062 80.433594 91.730469 81.824219 C 90.550781 83.214844 89.398438 84.628906 88.277344 86.070312 C 87.160156 87.511719 86.070312 88.976562 85.015625 90.464844 C 83.960938 91.953125 82.9375 93.464844 81.949219 94.996094 C 80.960938 96.53125 80.003906 98.085938 79.085938 99.660156 C 78.164062 101.234375 77.277344 102.828125 76.425781 104.441406 C 75.578125 106.054688 74.761719 107.6875 73.984375 109.335938 C 73.203125 110.984375 72.460938 112.652344 71.757812 114.332031 C 71.050781 116.015625 70.382812 117.710938 69.75 119.421875 C 69.121094 121.132812 68.527344 122.859375 67.972656 124.59375 C 67.417969 126.332031 66.898438 128.082031 66.421875 129.839844 C 65.941406 131.597656 65.503906 133.367188 65.101562 135.148438 C 64.703125 136.925781 64.339844 138.714844 64.019531 140.507812 C 63.695312 142.304688 63.414062 144.105469 63.171875 145.910156 C 62.925781 147.71875 62.722656 149.53125 62.5625 151.347656 C 62.398438 153.160156 62.273438 154.980469 62.191406 156.800781 C 62.109375 158.625 62.0625 160.445312 62.0625 162.269531 L 62.0625 206.78125 C 62.058594 209.367188 61.71875 211.910156 61.035156 214.410156 L 53.636719 241.539062 C 53.332031 242.644531 53.0625 243.757812 52.824219 244.875 C 52.585938 245.996094 52.382812 247.121094 52.207031 248.253906 C 52.035156 249.386719 51.894531 250.519531 51.785156 251.660156 C 51.679688 252.800781 51.601562 253.941406 51.5625 255.085938 C 51.519531 256.230469 51.507812 257.375 51.535156 258.519531 C 51.558594 259.664062 51.613281 260.804688 51.703125 261.949219 C 51.792969 263.089844 51.914062 264.226562 52.070312 265.359375 C 52.222656 266.496094 52.410156 267.625 52.632812 268.746094 C 52.851562 269.871094 53.101562 270.988281 53.386719 272.097656 C 53.671875 273.207031 53.988281 274.304688 54.335938 275.398438 C 54.683594 276.488281 55.0625 277.566406 55.46875 278.636719 C 55.878906 279.707031 56.320312 280.761719 56.789062 281.808594 C 57.261719 282.851562 57.761719 283.882812 58.289062 284.894531 C 58.820312 285.910156 59.378906 286.910156 59.964844 287.894531 C 60.554688 288.878906 61.167969 289.84375 61.8125 290.792969 C 62.453125 291.738281 63.125 292.667969 63.820312 293.578125 C 64.515625 294.488281 65.238281 295.378906 65.984375 296.246094 C 66.734375 297.113281 67.503906 297.960938 68.300781 298.785156 C 69.097656 299.609375 69.917969 300.410156 70.757812 301.1875 C 71.601562 301.964844 72.464844 302.714844 73.351562 303.441406 C 74.234375 304.171875 75.140625 304.871094 76.066406 305.546875 C 76.992188 306.222656 77.9375 306.871094 78.902344 307.492188 C 79.863281 308.117188 80.84375 308.707031 81.84375 309.273438 C 82.839844 309.839844 83.851562 310.375 84.882812 310.882812 C 85.910156 311.390625 86.953125 311.867188 88.007812 312.316406 C 89.0625 312.761719 90.132812 313.179688 91.210938 313.566406 C 92.289062 313.953125 93.378906 314.308594 94.480469 314.632812 C 95.582031 314.957031 96.691406 315.246094 97.808594 315.507812 C 98.925781 315.769531 100.046875 315.996094 101.175781 316.191406 C 102.308594 316.386719 103.441406 316.550781 104.582031 316.683594 C 105.722656 316.8125 106.863281 316.910156 108.007812 316.976562 C 109.15625 317.042969 110.300781 317.074219 111.449219 317.074219 Z M 186.902344 342.21875 C 186.03125 342.21875 185.164062 342.175781 184.292969 342.097656 C 183.425781 342.015625 182.5625 341.898438 181.707031 341.738281 C 180.847656 341.582031 180 341.386719 179.160156 341.15625 C 178.320312 340.921875 177.492188 340.652344 176.675781 340.347656 C 175.859375 340.039062 175.058594 339.699219 174.273438 339.320312 C 173.488281 338.941406 172.71875 338.53125 171.972656 338.085938 C 171.222656 337.640625 170.496094 337.160156 169.789062 336.648438 C 169.082031 336.140625 168.402344 335.597656 167.746094 335.027344 C 167.085938 334.453125 166.457031 333.855469 165.851562 333.226562 C 165.25 332.601562 164.675781 331.945312 164.128906 331.269531 C 163.582031 330.589844 163.070312 329.886719 162.585938 329.164062 C 162.105469 328.4375 161.65625 327.691406 161.238281 326.929688 C 160.824219 326.164062 160.441406 325.382812 160.09375 324.582031 C 159.75 323.785156 159.4375 322.972656 159.164062 322.144531 C 158.890625 321.320312 158.65625 320.484375 158.457031 319.636719 C 158.257812 318.789062 158.097656 317.933594 157.976562 317.074219 L 215.832031 317.074219 C 215.710938 317.933594 215.550781 318.789062 215.351562 319.636719 C 215.152344 320.484375 214.917969 321.320312 214.644531 322.144531 C 214.371094 322.972656 214.058594 323.785156 213.714844 324.582031 C 213.367188 325.382812 212.984375 326.164062 212.570312 326.929688 C 212.152344 327.691406 211.703125 328.4375 211.222656 329.164062 C 210.738281 329.886719 210.226562 330.589844 209.679688 331.269531 C 209.132812 331.945312 208.558594 332.601562 207.957031 333.226562 C 207.351562 333.855469 206.722656 334.453125 206.0625 335.027344 C 205.40625 335.597656 204.726562 336.140625 204.019531 336.648438 C 203.3125 337.160156 202.585938 337.640625 201.835938 338.085938 C 201.089844 338.53125 200.320312 338.941406 199.535156 339.320312 C 198.75 339.699219 197.949219 340.039062 197.132812 340.347656 C 196.316406 340.652344 195.488281 340.921875 194.648438 341.15625 C 193.808594 341.386719 192.960938 341.582031 192.101562 341.738281 C 191.246094 341.898438 190.382812 342.015625 189.515625 342.097656 C 188.644531 342.175781 187.777344 342.21875 186.902344 342.21875 Z M 83.128906 249.566406 L 90.578125 222.511719 C 91.988281 217.363281 92.691406 212.117188 92.6875 206.78125 L 92.6875 162.269531 C 92.6875 160.730469 92.726562 159.191406 92.800781 157.652344 C 92.875 156.117188 92.988281 154.582031 93.140625 153.046875 C 93.292969 151.515625 93.480469 149.988281 93.707031 148.464844 C 93.933594 146.941406 94.195312 145.425781 94.5 143.917969 C 94.800781 142.40625 95.136719 140.90625 95.511719 139.410156 C 95.886719 137.917969 96.296875 136.433594 96.746094 134.960938 C 97.195312 133.488281 97.675781 132.027344 98.195312 130.578125 C 98.71875 129.128906 99.273438 127.691406 99.863281 126.269531 C 100.453125 124.847656 101.078125 123.441406 101.738281 122.046875 C 102.398438 120.65625 103.089844 119.28125 103.816406 117.921875 C 104.542969 116.566406 105.304688 115.226562 106.097656 113.90625 C 106.890625 112.585938 107.714844 111.285156 108.574219 110.003906 C 109.429688 108.726562 110.316406 107.46875 111.238281 106.230469 C 112.15625 104.992188 113.105469 103.78125 114.082031 102.589844 C 115.0625 101.398438 116.070312 100.234375 117.105469 99.09375 C 118.140625 97.953125 119.207031 96.839844 120.296875 95.75 C 121.386719 94.660156 122.503906 93.601562 123.648438 92.566406 C 124.789062 91.53125 125.957031 90.527344 127.148438 89.550781 C 128.34375 88.574219 129.558594 87.625 130.796875 86.710938 C 132.035156 85.792969 133.296875 84.90625 134.582031 84.050781 C 135.863281 83.195312 137.164062 82.371094 138.488281 81.582031 C 139.8125 80.789062 141.152344 80.03125 142.515625 79.304688 C 143.875 78.578125 145.253906 77.886719 146.648438 77.230469 C 148.042969 76.570312 149.453125 75.945312 150.878906 75.359375 C 152.300781 74.769531 153.742188 74.214844 155.195312 73.695312 C 156.644531 73.175781 158.109375 72.695312 159.585938 72.246094 C 161.0625 71.800781 162.550781 71.390625 164.046875 71.015625 C 165.542969 70.640625 167.046875 70.304688 168.558594 70.003906 C 170.074219 69.703125 171.59375 69.441406 173.117188 69.214844 C 174.644531 68.988281 176.175781 68.800781 177.710938 68.648438 C 179.246094 68.5 180.785156 68.386719 182.324219 68.308594 C 183.867188 68.234375 185.40625 68.195312 186.949219 68.195312 C 188.492188 68.195312 190.035156 68.234375 191.574219 68.308594 C 193.117188 68.386719 194.652344 68.5 196.191406 68.648438 C 197.726562 68.800781 199.253906 68.988281 200.78125 69.214844 C 202.308594 69.441406 203.828125 69.703125 205.339844 70.003906 C 206.851562 70.304688 208.359375 70.640625 209.855469 71.015625 C 211.351562 71.390625 212.835938 71.800781 214.3125 72.246094 C 215.789062 72.695312 217.253906 73.175781 218.707031 73.695312 C 220.160156 74.214844 221.597656 74.769531 223.023438 75.359375 C 224.449219 75.945312 225.859375 76.570312 227.253906 77.230469 C 228.648438 77.886719 230.023438 78.578125 231.386719 79.304688 C 232.746094 80.03125 234.085938 80.789062 235.410156 81.582031 C 236.734375 82.371094 238.039062 83.195312 239.320312 84.050781 C 240.601562 84.90625 241.863281 85.792969 243.101562 86.710938 C 244.339844 87.625 245.558594 88.574219 246.75 89.550781 C 247.941406 90.527344 249.109375 91.53125 250.253906 92.566406 C 251.394531 93.601562 252.511719 94.660156 253.605469 95.75 C 254.695312 96.839844 255.757812 97.953125 256.792969 99.09375 C 257.832031 100.234375 258.835938 101.398438 259.816406 102.589844 C 260.796875 103.78125 261.742188 104.992188 262.664062 106.230469 C 263.582031 107.46875 264.46875 108.726562 265.328125 110.003906 C 266.183594 111.285156 267.007812 112.585938 267.800781 113.90625 C 268.59375 115.226562 269.355469 116.566406 270.082031 117.921875 C 270.808594 119.28125 271.503906 120.65625 272.164062 122.046875 C 272.824219 123.441406 273.449219 124.847656 274.039062 126.269531 C 274.628906 127.691406 275.183594 129.128906 275.703125 130.578125 C 276.222656 132.027344 276.707031 133.488281 277.15625 134.960938 C 277.601562 136.433594 278.011719 137.917969 278.386719 139.410156 C 278.761719 140.90625 279.101562 142.40625 279.402344 143.917969 C 279.703125 145.425781 279.964844 146.941406 280.191406 148.464844 C 280.417969 149.988281 280.609375 151.515625 280.757812 153.046875 C 280.910156 154.582031 281.023438 156.117188 281.101562 157.652344 C 281.175781 159.191406 281.214844 160.730469 281.214844 162.269531 L 281.214844 206.78125 C 281.210938 212.113281 281.914062 217.351562 283.324219 222.496094 L 290.722656 249.566406 C 291.019531 250.648438 291.25 251.746094 291.417969 252.855469 C 291.589844 253.964844 291.695312 255.078125 291.734375 256.199219 C 291.773438 257.320312 291.75 258.441406 291.664062 259.558594 C 291.574219 260.675781 291.421875 261.789062 291.207031 262.886719 C 290.988281 263.988281 290.710938 265.074219 290.371094 266.144531 C 290.03125 267.210938 289.628906 268.257812 289.167969 269.28125 C 288.707031 270.304688 288.1875 271.296875 287.609375 272.261719 C 287.035156 273.226562 286.40625 274.152344 285.722656 275.042969 C 285.042969 275.9375 284.308594 276.785156 283.53125 277.59375 C 282.75 278.402344 281.925781 279.160156 281.058594 279.875 C 280.191406 280.585938 279.285156 281.25 278.339844 281.859375 C 277.394531 282.46875 276.421875 283.019531 275.414062 283.519531 C 274.40625 284.015625 273.371094 284.453125 272.3125 284.832031 C 271.253906 285.210938 270.179688 285.527344 269.085938 285.785156 C 267.992188 286.039062 266.882812 286.230469 265.769531 286.359375 C 264.652344 286.488281 263.53125 286.554688 262.40625 286.554688 L 111.492188 286.554688 C 110.371094 286.554688 109.25 286.488281 108.132812 286.359375 C 107.015625 286.230469 105.910156 286.039062 104.816406 285.785156 C 103.71875 285.527344 102.644531 285.210938 101.585938 284.832031 C 100.527344 284.453125 99.496094 284.015625 98.488281 283.519531 C 97.480469 283.019531 96.503906 282.46875 95.558594 281.859375 C 94.617188 281.25 93.710938 280.585938 92.84375 279.875 C 91.976562 279.160156 91.152344 278.402344 90.371094 277.59375 C 89.589844 276.785156 88.859375 275.9375 88.175781 275.042969 C 87.492188 274.152344 86.863281 273.226562 86.289062 272.261719 C 85.714844 271.296875 85.195312 270.304688 84.734375 269.28125 C 84.273438 268.257812 83.871094 267.210938 83.53125 266.144531 C 83.1875 265.074219 82.910156 263.988281 82.695312 262.886719 C 82.476562 261.789062 82.324219 260.675781 82.238281 259.558594 C 82.148438 258.441406 82.125 257.320312 82.167969 256.199219 C 82.207031 255.078125 82.3125 253.964844 82.480469 252.855469 C 82.648438 251.746094 82.882812 250.648438 83.175781 249.566406 Z M 83.128906 249.566406 " fill-opacity="1" fill-rule="nonzero"/></svg>