<svg xmlns="http://www.w3.org/2000/svg" xmlns:xlink="http://www.w3.org/1999/xlink" width="500" zoomAndPan="magnify" viewBox="0 0 375 374.999991" height="500" preserveAspectRatio="xMidYMid meet" version="1.0"><defs><clipPath id="4b4a0e9600"><path d="M 24.375 0 L 350.625 0 L 350.625 375 L 24.375 375 Z M 24.375 0 " clip-rule="nonzero"/></clipPath></defs><g clip-path="url(#4b4a0e9600)"><path fill="#ffffff" d="M 24.605469 44.933594 C 70.148438 41.308594 109.820312 21.402344 139.804688 0 L 235.269531 0 C 265.253906 21.398438 304.925781 41.308594 350.472656 44.933594 L 350.472656 187.289062 C 350.472656 279.144531 257.21875 356.328125 187.539062 375 C 117.855469 356.328125 24.605469 279.144531 24.605469 187.289062 Z M 127.539062 171.878906 L 161.28125 214.589844 C 164.527344 218.699219 170.492188 219.398438 174.605469 216.152344 C 174.898438 215.921875 175.171875 215.675781 175.433594 215.417969 L 175.460938 215.445312 L 246.828125 144.078125 C 250.546875 140.359375 250.546875 134.324219 246.828125 130.605469 C 243.109375 126.886719 237.078125 126.886719 233.355469 130.605469 L 169.53125 194.429688 L 142.425781 160.117188 C 139.179688 156.007812 133.214844 155.308594 129.101562 158.554688 C 124.992188 161.800781 124.292969 167.769531 127.539062 171.878906 Z M 187.539062 76.394531 C 134.171875 76.394531 90.910156 119.660156 90.910156 173.023438 C 90.910156 226.390625 134.171875 269.652344 187.539062 269.652344 C 240.90625 269.652344 284.167969 226.390625 284.167969 173.023438 C 284.167969 119.660156 240.90625 76.394531 187.539062 76.394531 Z M 187.539062 76.394531 " fill-opacity="1" fill-rule="evenodd"/></g></svg>