<svg width="616" height="637" viewBox="0 0 616 637" fill="none" xmlns="http://www.w3.org/2000/svg">
<path fill-rule="evenodd" clip-rule="evenodd" d="M160 317H217.6V-3H224V317H249.6V-3H256V317H281.6V-3H288V317H313.6V-3H320V317H640V323.4H320V349H640V355.4H320V381H640V387.4H320V413H640V419.4H320V477C320 565.366 248.366 637 160 637C71.6345 637 0 565.366 0 477C0 388.634 71.6345 317 160 317ZM288 349H313.6V323.4H288V349ZM281.6 349H256V323.4H281.6V349ZM249.6 349H224V323.4H249.6V349ZM217.6 349V323.4H160C75.1691 323.4 6.39996 392.169 6.39996 477C6.39996 561.831 75.1691 630.6 160 630.6C244.831 630.6 313.6 561.831 313.6 477V419.4H288V477C288 547.692 230.692 605 160 605C89.3076 605 32 547.692 32 477C32 406.308 89.3076 349 160 349H217.6ZM288 413H313.6V387.4H288V413ZM281.6 419.4V477C281.6 544.158 227.158 598.6 160 598.6C92.8422 598.6 38.4 544.158 38.4 477C38.4 409.842 92.8422 355.4 160 355.4H217.6V381H160C106.981 381 64 423.981 64 477C64 530.019 106.981 573 160 573C213.019 573 256 530.019 256 477V419.4H281.6ZM249.6 381H224V355.4H249.6V381ZM256 355.4V381H281.6V355.4H256ZM256 387.4V413H281.6V387.4H256ZM249.6 477V419.4H224V477C224 512.346 195.346 541 160 541C124.654 541 96 512.346 96 477C96 441.654 124.654 413 160 413H217.6V387.4H160C110.515 387.4 70.4 427.515 70.4 477C70.4 526.485 110.515 566.6 160 566.6C209.485 566.6 249.6 526.485 249.6 477ZM217.6 477C217.6 508.812 191.812 534.6 160 534.6C128.188 534.6 102.4 508.812 102.4 477C102.4 445.188 128.188 419.4 160 419.4H217.6V477ZM224 413V387.4H249.6V413H224ZM288 381H313.6V355.4H288V381Z" fill="#28DEBE" fill-opacity="0.2"/>
</svg>
